Latin-Mizra-Medium.ufo
<glyph name="exclam" format="1">
  <advance width="241"/>
  <unicode hex="0021"/>
  <outline>
    <contour>
      <point x="90" y="167" type="line"/>
      <point x="114" y="189"/>
      <point x="138" y="210"/>
      <point x="164" y="228" type="curve"/>
      <point x="164" y="358"/>
      <point x="169" y="490"/>
      <point x="176" y="547" type="curve"/>
      <point x="128" y="547"/>
      <point x="92" y="541"/>
      <point x="52" y="525" type="curve"/>
      <point x="64" y="501"/>
      <point x="71" y="435"/>
      <point x="71" y="355" type="curve" smooth="yes"/>
      <point x="71" y="167" type="line"/>
    </contour>
    <contour>
      <point x="150" y="9"/>
      <point x="174" y="34"/>
      <point x="198" y="63" type="curve"/>
      <point x="169" y="86"/>
      <point x="144" y="111"/>
      <point x="121" y="140" type="curve"/>
      <point x="92" y="116"/>
      <point x="67" y="92"/>
      <point x="43" y="63" type="curve"/>
      <point x="72" y="39"/>
      <point x="97" y="14"/>
      <point x="121" y="-15" type="curve"/>
    </contour>
  </outline>
</glyph>
<glyph name="dollar" format="1">
  <advance width="454"/>
  <unicode hex="0024"/>
  <outline>
    <contour>
      <point x="241" y="-86"/>
      <point x="253" y="-85"/>
      <point x="265" y="-81" type="curve"/>
      <point x="261" y="-64"/>
      <point x="259" y="-33"/>
      <point x="257" y="11" type="curve"/>
      <point x="366" y="21"/>
      <point x="419" y="70"/>
      <point x="419" y="149" type="curve" smooth="yes"/>
      <point x="419" y="305"/>
      <point x="148" y="300"/>
      <point x="148" y="401" type="curve" smooth="yes"/>
      <point x="148" y="432"/>
      <point x="180" y="451"/>
      <point x="202" y="455" type="curve"/>
      <point x="243" y="455"/>
      <point x="309" y="422"/>
      <point x="365" y="381" type="curve"/>
      <point x="382" y="406"/>
      <point x="397" y="456"/>
      <point x="397" y="489" type="curve"/>
      <point x="359" y="504"/>
      <point x="311" y="512"/>
      <point x="258" y="513" type="curve"/>
      <point x="258" y="550"/>
      <point x="259" y="582"/>
      <point x="261" y="608" type="curve"/>
      <point x="249" y="612"/>
      <point x="236" y="614"/>
      <point x="225" y="614" type="curve" smooth="yes"/>
      <point x="213" y="614"/>
      <point x="200" y="611"/>
      <point x="190" y="608" type="curve"/>
      <point x="193" y="589"/>
      <point x="195" y="557"/>
      <point x="196" y="510" type="curve"/>
      <point x="99" y="498"/>
      <point x="40" y="450"/>
      <point x="40" y="385" type="curve" smooth="yes"/>
      <point x="40" y="229"/>
      <point x="311" y="227"/>
      <point x="311" y="133" type="curve" smooth="yes"/>
      <point x="311" y="94"/>
      <point x="275" y="70"/>
      <point x="207" y="70" type="curve" smooth="yes"/>
      <point x="143" y="70"/>
      <point x="84" y="89"/>
      <point x="51" y="121" type="curve"/>
      <point x="39" y="97"/>
      <point x="34" y="76"/>
      <point x="34" y="45" type="curve"/>
      <point x="76" y="25"/>
      <point x="132" y="11"/>
      <point x="195" y="9" type="curve"/>
      <point x="195" y="-26"/>
      <point x="194" y="-57"/>
      <point x="193" y="-81" type="curve"/>
      <point x="207" y="-85"/>
      <point x="218" y="-86"/>
      <point x="229" y="-86" type="curve" smooth="yes"/>
    </contour>
    <contour>
      <point x="219" y="527" type="move" name="top"/>
    </contour>
    <contour>
      <point x="219" y="0" type="move" name="bottom"/>
    </contour>
  </outline>
</glyph>
<glyph name="ampersand" format="1">
  <advance width="551"/>
  <unicode hex="0026"/>
  <outline>
    <contour>
      <point x="258" y="-11"/>
      <point x="310" y="14"/>
      <point x="350" y="52" type="curve"/>
      <point x="408" y="-6" type="line"/>
      <point x="466" y="-6"/>
      <point x="504" y="0"/>
      <point x="542" y="15" type="curve"/>
      <point x="502" y="44"/>
      <point x="457" y="85"/>
      <point x="413" y="130" type="curve"/>
      <point x="448" y="186"/>
      <point x="475" y="248"/>
      <point x="509" y="294" type="curve"/>
      <point x="473" y="294"/>
      <point x="447" y="292"/>
      <point x="407" y="288" type="curve"/>
      <point x="404" y="247"/>
      <point x="395" y="205"/>
      <point x="378" y="168" type="curve"/>
      <point x="291" y="263"/>
      <point x="218" y="366"/>
      <point x="218" y="405" type="curve" smooth="yes"/>
      <point x="218" y="452"/>
      <point x="251" y="483"/>
      <point x="301" y="483" type="curve"/>
      <point x="351" y="464"/>
      <point x="390" y="436"/>
      <point x="427" y="391" type="curve"/>
      <point x="445" y="414"/>
      <point x="461" y="465"/>
      <point x="461" y="499" type="curve"/>
      <point x="420" y="521"/>
      <point x="369" y="533"/>
      <point x="312" y="533" type="curve" smooth="yes"/>
      <point x="195" y="533"/>
      <point x="115" y="478"/>
      <point x="115" y="397" type="curve" smooth="yes"/>
      <point x="115" y="363"/>
      <point x="128" y="326"/>
      <point x="161" y="276" type="curve"/>
      <point x="76" y="246"/>
      <point x="28" y="190"/>
      <point x="28" y="120" type="curve" smooth="yes"/>
      <point x="28" y="42"/>
      <point x="91" y="-11"/>
      <point x="184" y="-11" type="curve" smooth="yes"/>
    </contour>
    <contour>
      <point x="174" y="46"/>
      <point x="137" y="81"/>
      <point x="137" y="133" type="curve" smooth="yes"/>
      <point x="137" y="178"/>
      <point x="155" y="214"/>
      <point x="188" y="239" type="curve"/>
      <point x="220" y="196"/>
      <point x="262" y="146"/>
      <point x="319" y="84" type="curve"/>
      <point x="293" y="61"/>
      <point x="263" y="46"/>
      <point x="229" y="46" type="curve" smooth="yes"/>
    </contour>
  </outline>
</glyph>
<glyph name="quotesingle" format="1">
  <advance width="156"/>
  <unicode hex="0027"/>
  <outline>
    <contour>
      <point x="115" y="315" type="line"/>
      <point x="115" y="405"/>
      <point x="116" y="472"/>
      <point x="127" y="549" type="curve"/>
      <point x="92" y="549"/>
      <point x="68" y="545"/>
      <point x="38" y="536" type="curve"/>
      <point x="38" y="374" type="line"/>
      <point x="57" y="356"/>
      <point x="76" y="338"/>
      <point x="94" y="315" type="curve"/>
    </contour>
  </outline>
</glyph>
<glyph name="asterisk" format="1">
  <advance width="405"/>
  <unicode hex="002A"/>
  <outline>
    <contour>
      <point x="212" y="280"/>
      <point x="239" y="285"/>
      <point x="272" y="294" type="curve"/>
      <point x="273" y="337"/>
      <point x="257" y="381"/>
      <point x="224" y="424" type="curve"/>
      <point x="279" y="425"/>
      <point x="319" y="421"/>
      <point x="363" y="412" type="curve"/>
      <point x="363" y="449"/>
      <point x="357" y="478"/>
      <point x="349" y="510" type="curve"/>
      <point x="305" y="511"/>
      <point x="262" y="496"/>
      <point x="218" y="462" type="curve"/>
      <point x="218" y="515"/>
      <point x="220" y="555"/>
      <point x="231" y="601" type="curve"/>
      <point x="191" y="601"/>
      <point x="163" y="596"/>
      <point x="130" y="586" type="curve"/>
      <point x="129" y="542"/>
      <point x="146" y="498"/>
      <point x="179" y="457" type="curve"/>
      <point x="127" y="456"/>
      <point x="87" y="459"/>
      <point x="41" y="469" type="curve"/>
      <point x="41" y="429"/>
      <point x="46" y="402"/>
      <point x="57" y="369" type="curve"/>
      <point x="99" y="368"/>
      <point x="142" y="384"/>
      <point x="186" y="417" type="curve"/>
      <point x="186" y="363"/>
      <point x="183" y="324"/>
      <point x="173" y="280" type="curve"/>
    </contour>
  </outline>
</glyph>
<glyph name="comma" format="1">
  <advance width="211"/>
  <unicode hex="002C"/>
  <outline>
    <contour>
      <point x="115" y="-62"/>
      <point x="157" y="13"/>
      <point x="164" y="94" type="curve"/>
      <point x="138" y="121" type="line"/>
      <point x="109" y="121"/>
      <point x="69" y="110"/>
      <point x="43" y="94" type="curve"/>
      <point x="55" y="68"/>
      <point x="61" y="38"/>
      <point x="61" y="3" type="curve" smooth="yes"/>
      <point x="61" y="-35"/>
      <point x="48" y="-74"/>
      <point x="27" y="-101" type="curve"/>
      <point x="44" y="-119" type="line"/>
    </contour>
  </outline>
</glyph>
<glyph name="period" format="1">
  <advance width="210"/>
  <unicode hex="002E"/>
  <outline>
    <contour>
      <point x="134" y="9"/>
      <point x="158" y="34"/>
      <point x="182" y="63" type="curve"/>
      <point x="153" y="86"/>
      <point x="128" y="111"/>
      <point x="105" y="140" type="curve"/>
      <point x="76" y="116"/>
      <point x="51" y="92"/>
      <point x="27" y="63" type="curve"/>
      <point x="56" y="39"/>
      <point x="81" y="14"/>
      <point x="105" y="-15" type="curve"/>
    </contour>
  </outline>
</glyph>
<glyph name="one" format="1">
  <advance width="342"/>
  <unicode hex="0031"/>
  <outline>
    <contour>
      <point x="245" y="-6"/>
      <point x="266" y="-4"/>
      <point x="285" y="0" type="curve"/>
      <point x="274" y="30"/>
      <point x="269" y="106"/>
      <point x="269" y="227" type="curve" smooth="yes"/>
      <point x="269" y="330"/>
      <point x="274" y="460"/>
      <point x="280" y="527" type="curve"/>
      <point x="256" y="531"/>
      <point x="236" y="533"/>
      <point x="217" y="533" type="curve"/>
      <point x="200" y="516"/>
      <point x="153" y="481"/>
      <point x="110" y="456" type="curve" smooth="yes"/>
      <point x="78" y="437"/>
      <point x="45" y="420"/>
      <point x="9" y="402" type="curve"/>
      <point x="17" y="372"/>
      <point x="29" y="347"/>
      <point x="48" y="322" type="curve"/>
      <point x="169" y="399" type="line"/>
      <point x="171" y="370"/>
      <point x="171" y="337"/>
      <point x="171" y="298" type="curve" smooth="yes"/>
      <point x="171" y="196"/>
      <point x="166" y="67"/>
      <point x="160" y="0" type="curve"/>
      <point x="184" y="-4"/>
      <point x="206" y="-6"/>
      <point x="225" y="-6" type="curve" smooth="yes"/>
    </contour>
  </outline>
</glyph>
<glyph name="two" format="1">
  <advance width="508"/>
  <unicode hex="0032"/>
  <outline>
    <contour>
      <point x="455" y="13"/>
      <point x="464" y="67"/>
      <point x="464" y="110" type="curve"/>
      <point x="425" y="94"/>
      <point x="356" y="84"/>
      <point x="288" y="84" type="curve" smooth="yes"/>
      <point x="250" y="84"/>
      <point x="206" y="86"/>
      <point x="178" y="91" type="curve"/>
      <point x="354" y="225"/>
      <point x="435" y="327"/>
      <point x="435" y="410" type="curve" smooth="yes"/>
      <point x="435" y="489"/>
      <point x="368" y="534"/>
      <point x="248" y="534" type="curve" smooth="yes"/>
      <point x="175" y="534"/>
      <point x="92" y="519"/>
      <point x="55" y="499" type="curve"/>
      <point x="55" y="466"/>
      <point x="70" y="416"/>
      <point x="88" y="391" type="curve"/>
      <point x="151" y="438"/>
      <point x="217" y="470"/>
      <point x="257" y="475" type="curve"/>
      <point x="301" y="468"/>
      <point x="324" y="441"/>
      <point x="324" y="399" type="curve" smooth="yes"/>
      <point x="324" y="311"/>
      <point x="235" y="195"/>
      <point x="43" y="40" type="curve"/>
      <point x="43" y="0" type="line"/>
      <point x="141" y="5"/>
      <point x="402" y="2"/>
      <point x="444" y="-5" type="curve"/>
    </contour>
  </outline>
</glyph>
<glyph name="seven" format="1">
  <advance width="457"/>
  <unicode hex="0037"/>
  <outline>
    <contour>
      <point x="239" y="95"/>
      <point x="363" y="335"/>
      <point x="400" y="402" type="curve" smooth="yes"/>
      <point x="419" y="438"/>
      <point x="429" y="461"/>
      <point x="429" y="493" type="curve" smooth="yes"/>
      <point x="429" y="512"/>
      <point x="419" y="533"/>
      <point x="397" y="546" type="curve"/>
      <point x="359" y="523"/>
      <point x="307" y="516"/>
      <point x="223" y="516" type="curve" smooth="yes"/>
      <point x="141" y="516"/>
      <point x="64" y="520"/>
      <point x="28" y="527" type="curve"/>
      <point x="28" y="492"/>
      <point x="37" y="445"/>
      <point x="50" y="412" type="curve"/>
      <point x="71" y="425"/>
      <point x="99" y="430"/>
      <point x="148" y="430" type="curve" smooth="yes"/>
      <point x="213" y="430"/>
      <point x="280" y="429"/>
      <point x="338" y="428" type="curve"/>
      <point x="226" y="217"/>
      <point x="119" y="83"/>
      <point x="67" y="25" type="curve"/>
      <point x="104" y="1"/>
      <point x="142" y="-6"/>
      <point x="190" y="-6" type="curve"/>
    </contour>
  </outline>
</glyph>
<glyph name="at" format="1">
  <advance width="826"/>
  <unicode hex="0040"/>
  <outline>
    <contour>
      <point x="426" y="-124"/>
      <point x="470" y="-113"/>
      <point x="506" y="-94" type="curve"/>
      <point x="506" y="-74"/>
      <point x="502" y="-59"/>
      <point x="490" y="-41" type="curve"/>
      <point x="466" y="-59"/>
      <point x="422" y="-70"/>
      <point x="380" y="-70" type="curve" smooth="yes"/>
      <point x="218" y="-70"/>
      <point x="129" y="52"/>
      <point x="129" y="214" type="curve" smooth="yes"/>
      <point x="129" y="383"/>
      <point x="257" y="505"/>
      <point x="436" y="505" type="curve"/>
      <point x="601" y="480"/>
      <point x="698" y="367"/>
      <point x="698" y="206" type="curve" smooth="yes"/>
      <point x="698" y="96"/>
      <point x="651" y="49"/>
      <point x="614" y="49" type="curve" smooth="yes"/>
      <point x="581" y="49"/>
      <point x="555" y="66"/>
      <point x="555" y="132" type="curve" smooth="yes"/>
      <point x="555" y="184"/>
      <point x="564" y="237"/>
      <point x="564" y="293" type="curve" smooth="yes"/>
      <point x="564" y="364"/>
      <point x="517" y="403"/>
      <point x="435" y="403" type="curve" smooth="yes"/>
      <point x="374" y="403"/>
      <point x="312" y="370"/>
      <point x="277" y="321" type="curve"/>
      <point x="286" y="284" type="line"/>
      <point x="316" y="307"/>
      <point x="357" y="321"/>
      <point x="395" y="321" type="curve" smooth="yes"/>
      <point x="447" y="321"/>
      <point x="469" y="298"/>
      <point x="470" y="241" type="curve"/>
      <point x="330" y="234"/>
      <point x="260" y="196"/>
      <point x="260" y="126" type="curve" smooth="yes"/>
      <point x="260" y="81"/>
      <point x="291" y="49"/>
      <point x="342" y="49" type="curve" smooth="yes"/>
      <point x="380" y="49"/>
      <point x="427" y="65"/>
      <point x="468" y="91" type="curve"/>
      <point x="483" y="20"/>
      <point x="538" y="-9"/>
      <point x="594" y="-9" type="curve" smooth="yes"/>
      <point x="676" y="-9"/>
      <point x="772" y="66"/>
      <point x="772" y="251" type="curve" smooth="yes"/>
      <point x="772" y="458"/>
      <point x="638" y="595"/>
      <point x="437" y="595" type="curve" smooth="yes"/>
      <point x="212" y="595"/>
      <point x="53" y="438"/>
      <point x="53" y="212" type="curve" smooth="yes"/>
      <point x="53" y="11"/>
      <point x="183" y="-124"/>
      <point x="377" y="-124" type="curve" smooth="yes"/>
    </contour>
    <contour>
      <point x="370" y="108"/>
      <point x="359" y="126"/>
      <point x="359" y="143" type="curve" smooth="yes"/>
      <point x="359" y="181"/>
      <point x="399" y="204"/>
      <point x="469" y="208" type="curve"/>
      <point x="465" y="179"/>
      <point x="464" y="152"/>
      <point x="464" y="128" type="curve"/>
      <point x="440" y="113"/>
      <point x="410" y="102"/>
      <point x="385" y="99" type="curve"/>
    </contour>
  </outline>
</glyph>
<glyph name="B" format="1">
  <advance width="525"/>
  <unicode hex="0042"/>
  <outline>
    <contour>
      <point x="407" y="-12"/>
      <point x="487" y="44"/>
      <point x="487" y="144" type="curve" smooth="yes"/>
      <point x="487" y="204"/>
      <point x="446" y="252"/>
      <point x="379" y="277" type="curve"/>
      <point x="430" y="302"/>
      <point x="462" y="343"/>
      <point x="462" y="391" type="curve" smooth="yes"/>
      <point x="462" y="482"/>
      <point x="390" y="532"/>
      <point x="260" y="532" type="curve" smooth="yes"/>
      <point x="187" y="532"/>
      <point x="106" y="521"/>
      <point x="57" y="505" type="curve"/>
      <point x="68" y="480"/>
      <point x="73" y="418"/>
      <point x="73" y="308" type="curve" smooth="yes"/>
      <point x="73" y="201"/>
      <point x="69" y="73"/>
      <point x="64" y="15" type="curve"/>
      <point x="112" y="-1"/>
      <point x="192" y="-12"/>
      <point x="264" y="-12" type="curve" smooth="yes"/>
    </contour>
    <contour>
      <point x="227" y="39"/>
      <point x="201" y="43"/>
      <point x="178" y="52" type="curve"/>
      <point x="174" y="91"/>
      <point x="172" y="146"/>
      <point x="172" y="222" type="curve"/>
      <point x="221" y="238"/>
      <point x="270" y="248"/>
      <point x="297" y="248" type="curve"/>
      <point x="349" y="228"/>
      <point x="378" y="191"/>
      <point x="378" y="144" type="curve" smooth="yes"/>
      <point x="378" y="74"/>
      <point x="337" y="39"/>
      <point x="254" y="39" type="curve" smooth="yes"/>
    </contour>
    <contour>
      <point x="174" y="341"/>
      <point x="176" y="401"/>
      <point x="179" y="451" type="curve"/>
      <point x="201" y="458"/>
      <point x="224" y="461"/>
      <point x="250" y="461" type="curve" smooth="yes"/>
      <point x="319" y="461"/>
      <point x="353" y="434"/>
      <point x="353" y="380" type="curve" smooth="yes"/>
      <point x="353" y="348"/>
      <point x="333" y="318"/>
      <point x="297" y="294" type="curve"/>
      <point x="256" y="297"/>
      <point x="209" y="295"/>
      <point x="173" y="286" type="curve"/>
    </contour>
  </outline>
</glyph>
<glyph name="C" format="1">
  <advance width="492"/>
  <unicode hex="0043"/>
  <outline>
    <contour>
      <point x="347" y="-11"/>
      <point x="428" y="25"/>
      <point x="472" y="78" type="curve"/>
      <point x="463" y="115" type="line"/>
      <point x="422" y="91"/>
      <point x="363" y="77"/>
      <point x="302" y="77" type="curve" smooth="yes"/>
      <point x="210" y="77"/>
      <point x="147" y="135"/>
      <point x="147" y="269" type="curve" smooth="yes"/>
      <point x="147" y="364"/>
      <point x="200" y="457"/>
      <point x="264" y="474" type="curve"/>
      <point x="300" y="474"/>
      <point x="371" y="442"/>
      <point x="425" y="401" type="curve"/>
      <point x="442" y="424"/>
      <point x="458" y="475"/>
      <point x="458" y="509" type="curve"/>
      <point x="419" y="525"/>
      <point x="368" y="533"/>
      <point x="311" y="533" type="curve" smooth="yes"/>
      <point x="150" y="533"/>
      <point x="38" y="413"/>
      <point x="38" y="241" type="curve" smooth="yes"/>
      <point x="38" y="79"/>
      <point x="121" y="-11"/>
      <point x="270" y="-11" type="curve" smooth="yes"/>
    </contour>
    <contour>
      <point x="267" y="527" type="move" name="top"/>
    </contour>
    <contour>
      <point x="247" y="0" type="move" name="bottom"/>
    </contour>
  </outline>
</glyph>
<glyph name="F" format="1">
  <advance width="432"/>
  <unicode hex="0046"/>
  <outline>
    <contour>
      <point x="147" y="-6"/>
      <point x="168" y="-4"/>
      <point x="188" y="0" type="curve"/>
      <point x="177" y="29"/>
      <point x="172" y="105"/>
      <point x="172" y="231" type="curve"/>
      <point x="225" y="233"/>
      <point x="297" y="229"/>
      <point x="360" y="224" type="curve"/>
      <point x="362" y="239"/>
      <point x="364" y="254"/>
      <point x="364" y="266" type="curve" smooth="yes"/>
      <point x="364" y="279"/>
      <point x="362" y="293"/>
      <point x="360" y="307" type="curve"/>
      <point x="324" y="299"/>
      <point x="300" y="296"/>
      <point x="237" y="296" type="curve" smooth="yes"/>
      <point x="217" y="296"/>
      <point x="193" y="297"/>
      <point x="172" y="298" type="curve"/>
      <point x="173" y="345"/>
      <point x="175" y="397"/>
      <point x="177" y="436" type="curve"/>
      <point x="203" y="440"/>
      <point x="237" y="443"/>
      <point x="268" y="443" type="curve" smooth="yes"/>
      <point x="313" y="443"/>
      <point x="362" y="434"/>
      <point x="391" y="416" type="curve"/>
      <point x="404" y="433"/>
      <point x="412" y="489"/>
      <point x="412" y="527" type="curve"/>
      <point x="365" y="522"/>
      <point x="295" y="520"/>
      <point x="223" y="520" type="curve" smooth="yes"/>
      <point x="158" y="520"/>
      <point x="97" y="522"/>
      <point x="57" y="527" type="curve"/>
      <point x="69" y="476"/>
      <point x="73" y="406"/>
      <point x="73" y="272" type="curve" smooth="yes"/>
      <point x="73" y="178"/>
      <point x="68" y="60"/>
      <point x="62" y="0" type="curve"/>
      <point x="87" y="-4"/>
      <point x="108" y="-6"/>
      <point x="127" y="-6" type="curve" smooth="yes"/>
    </contour>
  </outline>
</glyph>
<glyph name="G" format="1">
  <advance width="531"/>
  <unicode hex="0047"/>
  <outline>
    <contour>
      <point x="347" y="-11"/>
      <point x="428" y="17"/>
      <point x="472" y="58" type="curve"/>
      <point x="473" y="135"/>
      <point x="477" y="215"/>
      <point x="482" y="262" type="curve"/>
      <point x="458" y="266"/>
      <point x="437" y="268"/>
      <point x="418" y="268" type="curve" smooth="yes"/>
      <point x="400" y="268"/>
      <point x="379" y="266"/>
      <point x="362" y="262" type="curve"/>
      <point x="372" y="236"/>
      <point x="377" y="174"/>
      <point x="378" y="75" type="curve"/>
      <point x="357" y="70"/>
      <point x="334" y="67"/>
      <point x="311" y="67" type="curve" smooth="yes"/>
      <point x="195" y="67"/>
      <point x="147" y="128"/>
      <point x="147" y="269" type="curve" smooth="yes"/>
      <point x="147" y="364"/>
      <point x="200" y="457"/>
      <point x="264" y="474" type="curve"/>
      <point x="303" y="474"/>
      <point x="377" y="442"/>
      <point x="435" y="401" type="curve"/>
      <point x="452" y="424"/>
      <point x="468" y="475"/>
      <point x="468" y="509" type="curve"/>
      <point x="427" y="525"/>
      <point x="373" y="533"/>
      <point x="311" y="533" type="curve" smooth="yes"/>
      <point x="150" y="533"/>
      <point x="38" y="413"/>
      <point x="38" y="241" type="curve" smooth="yes"/>
      <point x="38" y="79"/>
      <point x="121" y="-11"/>
      <point x="270" y="-11" type="curve" smooth="yes"/>
    </contour>
    <contour>
      <point x="286" y="527" type="move" name="top"/>
    </contour>
    <contour>
      <point x="266" y="0" type="move" name="bottom"/>
    </contour>
  </outline>
</glyph>
<glyph name="I" format="1">
  <advance width="246"/>
  <unicode hex="0049"/>
  <outline>
    <contour>
      <point x="147" y="-6"/>
      <point x="168" y="-4"/>
      <point x="188" y="0" type="curve"/>
      <point x="177" y="30"/>
      <point x="172" y="106"/>
      <point x="172" y="227" type="curve" smooth="yes"/>
      <point x="172" y="330"/>
      <point x="177" y="460"/>
      <point x="183" y="527" type="curve"/>
      <point x="159" y="531"/>
      <point x="138" y="533"/>
      <point x="119" y="533" type="curve" smooth="yes"/>
      <point x="99" y="533"/>
      <point x="77" y="531"/>
      <point x="57" y="527" type="curve"/>
      <point x="68" y="497"/>
      <point x="73" y="419"/>
      <point x="73" y="298" type="curve" smooth="yes"/>
      <point x="73" y="196"/>
      <point x="68" y="67"/>
      <point x="62" y="0" type="curve"/>
      <point x="87" y="-4"/>
      <point x="108" y="-6"/>
      <point x="127" y="-6" type="curve" smooth="yes"/>
    </contour>
    <contour>
      <point x="188" y="0" type="move" name="ogonek"/>
    </contour>
    <contour>
      <point x="123" y="527" type="move" name="top"/>
    </contour>
    <contour>
      <point x="20" y="527" type="move" name="topleft"/>
    </contour>
    <contour>
      <point x="123" y="0" type="move" name="bottom"/>
    </contour>
  </outline>
</glyph>
<glyph name="K" format="1">
  <advance width="511"/>
  <unicode hex="004B"/>
  <outline>
    <contour>
      <point x="147" y="-6"/>
      <point x="168" y="-4"/>
      <point x="188" y="0" type="curve"/>
      <point x="178" y="27"/>
      <point x="173" y="90"/>
      <point x="172" y="190" type="curve"/>
      <point x="185" y="204"/>
      <point x="198" y="220"/>
      <point x="212" y="236" type="curve"/>
      <point x="291" y="125"/>
      <point x="351" y="36"/>
      <point x="376" y="-6" type="curve"/>
      <point x="428" y="-6"/>
      <point x="469" y="-1"/>
      <point x="510" y="15" type="curve"/>
      <point x="451" y="58"/>
      <point x="364" y="183"/>
      <point x="282" y="315" type="curve"/>
      <point x="351" y="392"/>
      <point x="425" y="472"/>
      <point x="489" y="533" type="curve"/>
      <point x="445" y="533"/>
      <point x="408" y="531"/>
      <point x="357" y="522" type="curve"/>
      <point x="357" y="492"/>
      <point x="333" y="445"/>
      <point x="172" y="273" type="curve"/>
      <point x="173" y="366"/>
      <point x="178" y="470"/>
      <point x="183" y="527" type="curve"/>
      <point x="159" y="531"/>
      <point x="138" y="533"/>
      <point x="119" y="533" type="curve" smooth="yes"/>
      <point x="99" y="533"/>
      <point x="77" y="531"/>
      <point x="57" y="527" type="curve"/>
      <point x="68" y="497"/>
      <point x="73" y="419"/>
      <point x="73" y="298" type="curve" smooth="yes"/>
      <point x="73" y="196"/>
      <point x="68" y="67"/>
      <point x="62" y="0" type="curve"/>
      <point x="87" y="-4"/>
      <point x="108" y="-6"/>
      <point x="127" y="-6" type="curve" smooth="yes"/>
    </contour>
    <contour>
      <point x="256" y="527" type="move" name="top"/>
    </contour>
    <contour>
      <point x="256" y="0" type="move" name="bottom"/>
    </contour>
  </outline>
</glyph>
<glyph name="R" format="1">
  <advance width="508"/>
  <unicode hex="0052"/>
  <outline>
    <contour>
      <point x="147" y="-6"/>
      <point x="168" y="-4"/>
      <point x="188" y="0" type="curve"/>
      <point x="179" y="27"/>
      <point x="173" y="90"/>
      <point x="172" y="186" type="curve"/>
      <point x="194" y="182"/>
      <point x="239" y="178"/>
      <point x="259" y="181" type="curve"/>
      <point x="305" y="95"/>
      <point x="339" y="27"/>
      <point x="352" y="-6" type="curve"/>
      <point x="402" y="-6"/>
      <point x="443" y="-1"/>
      <point x="485" y="15" type="curve"/>
      <point x="449" y="44"/>
      <point x="404" y="119"/>
      <point x="361" y="205" type="curve"/>
      <point x="424" y="235"/>
      <point x="462" y="289"/>
      <point x="462" y="356" type="curve" smooth="yes"/>
      <point x="462" y="469"/>
      <point x="386" y="532"/>
      <point x="249" y="532" type="curve" smooth="yes"/>
      <point x="177" y="532"/>
      <point x="99" y="521"/>
      <point x="57" y="505" type="curve"/>
      <point x="68" y="478"/>
      <point x="73" y="407"/>
      <point x="73" y="298" type="curve" smooth="yes"/>
      <point x="73" y="203"/>
      <point x="68" y="66"/>
      <point x="62" y="0" type="curve"/>
      <point x="87" y="-4"/>
      <point x="108" y="-6"/>
      <point x="127" y="-6" type="curve" smooth="yes"/>
    </contour>
    <contour>
      <point x="252" y="237"/>
      <point x="212" y="247"/>
      <point x="172" y="260" type="curve"/>
      <point x="173" y="327"/>
      <point x="175" y="399"/>
      <point x="179" y="454" type="curve"/>
      <point x="195" y="459"/>
      <point x="211" y="461"/>
      <point x="229" y="461" type="curve" smooth="yes"/>
      <point x="308" y="461"/>
      <point x="353" y="427"/>
      <point x="353" y="348" type="curve" smooth="yes"/>
      <point x="353" y="297"/>
      <point x="319" y="257"/>
      <point x="277" y="237" type="curve"/>
    </contour>
    <contour>
      <point x="254" y="527" type="move" name="top"/>
    </contour>
    <contour>
      <point x="254" y="0" type="move" name="bottom"/>
    </contour>
  </outline>
</glyph>
<glyph name="S" format="1">
  <advance width="454"/>
  <unicode hex="0053"/>
  <outline>
    <contour>
      <point x="352" y="-11"/>
      <point x="419" y="44"/>
      <point x="419" y="139" type="curve" smooth="yes"/>
      <point x="419" y="307"/>
      <point x="148" y="302"/>
      <point x="148" y="411" type="curve" smooth="yes"/>
      <point x="148" y="448"/>
      <point x="180" y="470"/>
      <point x="202" y="475" type="curve"/>
      <point x="243" y="475"/>
      <point x="309" y="442"/>
      <point x="365" y="401" type="curve"/>
      <point x="382" y="426"/>
      <point x="397" y="476"/>
      <point x="397" y="509" type="curve"/>
      <point x="356" y="525"/>
      <point x="305" y="533"/>
      <point x="247" y="533" type="curve" smooth="yes"/>
      <point x="120" y="533"/>
      <point x="40" y="477"/>
      <point x="40" y="395" type="curve" smooth="yes"/>
      <point x="40" y="227"/>
      <point x="311" y="225"/>
      <point x="311" y="123" type="curve" smooth="yes"/>
      <point x="311" y="78"/>
      <point x="275" y="50"/>
      <point x="207" y="50" type="curve" smooth="yes"/>
      <point x="143" y="50"/>
      <point x="84" y="69"/>
      <point x="51" y="101" type="curve"/>
      <point x="39" y="77"/>
      <point x="34" y="56"/>
      <point x="34" y="25" type="curve"/>
      <point x="81" y="3"/>
      <point x="142" y="-11"/>
      <point x="214" y="-11" type="curve" smooth="yes"/>
    </contour>
    <contour>
      <point x="219" y="527" type="move" name="top"/>
    </contour>
    <contour>
      <point x="219" y="0" type="move" name="bottom"/>
    </contour>
  </outline>
</glyph>
<glyph name="T" format="1">
  <advance width="448"/>
  <unicode hex="0054"/>
  <outline>
    <contour>
      <point x="249" y="-6"/>
      <point x="271" y="-4"/>
      <point x="289" y="0" type="curve"/>
      <point x="278" y="30"/>
      <point x="273" y="105"/>
      <point x="273" y="227" type="curve" smooth="yes"/>
      <point x="273" y="295"/>
      <point x="276" y="376"/>
      <point x="279" y="439" type="curve"/>
      <point x="339" y="437"/>
      <point x="398" y="434"/>
      <point x="433" y="431" type="curve"/>
      <point x="436" y="449"/>
      <point x="438" y="466"/>
      <point x="438" y="482" type="curve" smooth="yes"/>
      <point x="438" y="497"/>
      <point x="436" y="514"/>
      <point x="433" y="530" type="curve"/>
      <point x="409" y="521"/>
      <point x="349" y="517"/>
      <point x="253" y="517" type="curve" smooth="yes"/>
      <point x="170" y="517"/>
      <point x="67" y="521"/>
      <point x="14" y="526" type="curve"/>
      <point x="11" y="508"/>
      <point x="9" y="492"/>
      <point x="9" y="477" type="curve" smooth="yes"/>
      <point x="9" y="461"/>
      <point x="11" y="444"/>
      <point x="14" y="427" type="curve"/>
      <point x="36" y="434"/>
      <point x="87" y="439"/>
      <point x="170" y="440" type="curve"/>
      <point x="173" y="405"/>
      <point x="174" y="359"/>
      <point x="174" y="300" type="curve" smooth="yes"/>
      <point x="174" y="197"/>
      <point x="169" y="67"/>
      <point x="163" y="0" type="curve"/>
      <point x="188" y="-4"/>
      <point x="209" y="-6"/>
      <point x="228" y="-6" type="curve" smooth="yes"/>
    </contour>
    <contour>
      <point x="224" y="264" type="move" name="center"/>
    </contour>
    <contour>
      <point x="224" y="0" type="move" name="bottom"/>
    </contour>
    <contour>
      <point x="224" y="527" type="move" name="top"/>
    </contour>
  </outline>
</glyph>
<glyph name="W" format="1">
  <advance width="794"/>
  <unicode hex="0057"/>
  <outline>
    <contour>
      <point x="296" y="27" type="line"/>
      <point x="321" y="110"/>
      <point x="360" y="229"/>
      <point x="396" y="337" type="curve"/>
      <point x="454" y="154"/>
      <point x="478" y="-9"/>
      <point x="562" y="-9" type="curve"/>
      <point x="619" y="27" type="line"/>
      <point x="662" y="168"/>
      <point x="741" y="409"/>
      <point x="789" y="533" type="curve"/>
      <point x="751" y="533"/>
      <point x="723" y="530"/>
      <point x="692" y="522" type="curve"/>
      <point x="703" y="488"/>
      <point x="667" y="363"/>
      <point x="581" y="102" type="curve"/>
      <point x="566" y="135"/>
      <point x="547" y="186"/>
      <point x="524" y="260" type="curve" smooth="yes"/>
      <point x="501" y="347"/>
      <point x="474" y="469"/>
      <point x="465" y="533" type="curve"/>
      <point x="420" y="533"/>
      <point x="373" y="527"/>
      <point x="329" y="512" type="curve"/>
      <point x="360" y="440" type="line"/>
      <point x="344" y="371"/>
      <point x="311" y="262"/>
      <point x="257" y="102" type="curve"/>
      <point x="242" y="135"/>
      <point x="224" y="186"/>
      <point x="201" y="260" type="curve" smooth="yes"/>
      <point x="175" y="350"/>
      <point x="149" y="471"/>
      <point x="142" y="533" type="curve"/>
      <point x="88" y="533"/>
      <point x="47" y="526"/>
      <point x="5" y="512" type="curve"/>
      <point x="121" y="270"/>
      <point x="128" y="-9"/>
      <point x="238" y="-9" type="curve"/>
    </contour>
    <contour>
      <point x="397" y="527" type="move" name="top"/>
    </contour>
    <contour>
      <point x="397" y="0" type="move" name="bottom"/>
    </contour>
  </outline>
</glyph>
<glyph name="X" format="1">
  <advance width="515"/>
  <unicode hex="0058"/>
  <outline>
    <contour>
      <point x="38" y="-6"/>
      <point x="71" y="-5"/>
      <point x="113" y="0" type="curve"/>
      <point x="119" y="26"/>
      <point x="157" y="91"/>
      <point x="245" y="202" type="curve"/>
      <point x="312" y="103"/>
      <point x="368" y="14"/>
      <point x="377" y="-6" type="curve"/>
      <point x="429" y="-6"/>
      <point x="470" y="-1"/>
      <point x="511" y="15" type="curve"/>
      <point x="486" y="34"/>
      <point x="396" y="161"/>
      <point x="312" y="284" type="curve"/>
      <point x="370" y="360"/>
      <point x="451" y="463"/>
      <point x="516" y="533" type="curve"/>
      <point x="478" y="533"/>
      <point x="445" y="532"/>
      <point x="402" y="527" type="curve"/>
      <point x="396" y="501"/>
      <point x="361" y="440"/>
      <point x="278" y="335" type="curve"/>
      <point x="214" y="430"/>
      <point x="161" y="514"/>
      <point x="153" y="533" type="curve"/>
      <point x="101" y="533"/>
      <point x="59" y="528"/>
      <point x="19" y="512" type="curve"/>
      <point x="44" y="493"/>
      <point x="129" y="373"/>
      <point x="211" y="253" type="curve"/>
      <point x="153" y="176"/>
      <point x="67" y="67"/>
      <point x="-1" y="-6" type="curve"/>
    </contour>
  </outline>
</glyph>
<glyph name="Y" format="1">
  <advance width="478"/>
  <unicode hex="0059"/>
  <outline>
    <contour>
      <point x="265" y="-6"/>
      <point x="286" y="-4"/>
      <point x="306" y="0" type="curve"/>
      <point x="295" y="25"/>
      <point x="290" y="88"/>
      <point x="290" y="188" type="curve"/>
      <point x="335" y="288"/>
      <point x="406" y="436"/>
      <point x="473" y="533" type="curve"/>
      <point x="435" y="533"/>
      <point x="404" y="532"/>
      <point x="361" y="527" type="curve"/>
      <point x="359" y="493"/>
      <point x="331" y="411"/>
      <point x="260" y="274" type="curve"/>
      <point x="195" y="395"/>
      <point x="149" y="509"/>
      <point x="142" y="533" type="curve"/>
      <point x="89" y="533"/>
      <point x="46" y="528"/>
      <point x="5" y="512" type="curve"/>
      <point x="30" y="488"/>
      <point x="124" y="335"/>
      <point x="190" y="187" type="curve"/>
      <point x="189" y="116"/>
      <point x="185" y="42"/>
      <point x="180" y="0" type="curve"/>
      <point x="205" y="-4"/>
      <point x="226" y="-6"/>
      <point x="245" y="-6" type="curve" smooth="yes"/>
    </contour>
    <contour>
      <point x="259" y="527" type="move" name="top"/>
    </contour>
    <contour>
      <point x="239" y="0" type="move" name="bottom"/>
    </contour>
    <contour>
      <point x="20" y="527" type="move" name="topleft"/>
    </contour>
  </outline>
</glyph>
<glyph name="Z" format="1">
  <advance width="450"/>
  <unicode hex="005A"/>
  <outline>
    <contour>
      <point x="419" y="17"/>
      <point x="427" y="75"/>
      <point x="427" y="110" type="curve"/>
      <point x="385" y="93"/>
      <point x="315" y="84"/>
      <point x="255" y="84" type="curve" smooth="yes"/>
      <point x="217" y="84"/>
      <point x="172" y="87"/>
      <point x="144" y="91" type="curve"/>
      <point x="221" y="195"/>
      <point x="381" y="398"/>
      <point x="413" y="445" type="curve" smooth="yes"/>
      <point x="425" y="461"/>
      <point x="431" y="477"/>
      <point x="431" y="495" type="curve" smooth="yes"/>
      <point x="431" y="514"/>
      <point x="421" y="534"/>
      <point x="399" y="546" type="curve"/>
      <point x="361" y="523"/>
      <point x="309" y="516"/>
      <point x="225" y="516" type="curve" smooth="yes"/>
      <point x="143" y="516"/>
      <point x="66" y="520"/>
      <point x="30" y="527" type="curve"/>
      <point x="30" y="492"/>
      <point x="39" y="445"/>
      <point x="52" y="412" type="curve"/>
      <point x="73" y="425"/>
      <point x="101" y="430"/>
      <point x="150" y="430" type="curve" smooth="yes"/>
      <point x="213" y="430"/>
      <point x="281" y="428"/>
      <point x="331" y="427" type="curve"/>
      <point x="199" y="247"/>
      <point x="77" y="96"/>
      <point x="19" y="40" type="curve"/>
      <point x="19" y="0" type="line"/>
      <point x="88" y="4"/>
      <point x="354" y="4"/>
      <point x="407" y="-5" type="curve"/>
    </contour>
    <contour>
      <point x="226" y="527" type="move" name="top"/>
    </contour>
    <contour>
      <point x="226" y="0" type="move" name="bottom"/>
    </contour>
  </outline>
</glyph>
<glyph name="a" format="1">
  <advance width="437"/>
  <unicode hex="0061"/>
  <outline>
    <contour>
      <point x="170" y="-11"/>
      <point x="224" y="10"/>
      <point x="271" y="42" type="curve"/>
      <point x="279" y="19"/>
      <point x="291" y="2"/>
      <point x="310" y="-11" type="curve"/>
      <point x="342" y="-7"/>
      <point x="375" y="7"/>
      <point x="401" y="27" type="curve"/>
      <point x="370" y="60"/>
      <point x="362" y="82"/>
      <point x="362" y="132" type="curve" smooth="yes"/>
      <point x="362" y="179"/>
      <point x="371" y="231"/>
      <point x="371" y="284" type="curve" smooth="yes"/>
      <point x="371" y="370"/>
      <point x="320" y="418"/>
      <point x="229" y="418" type="curve" smooth="yes"/>
      <point x="163" y="418"/>
      <point x="94" y="378"/>
      <point x="56" y="319" type="curve"/>
      <point x="64" y="286" type="line"/>
      <point x="98" y="309"/>
      <point x="144" y="323"/>
      <point x="187" y="323" type="curve" smooth="yes"/>
      <point x="250" y="323"/>
      <point x="271" y="295"/>
      <point x="272" y="222" type="curve"/>
      <point x="114" y="211"/>
      <point x="37" y="166"/>
      <point x="37" y="83" type="curve" smooth="yes"/>
      <point x="37" y="28"/>
      <point x="73" y="-11"/>
      <point x="127" y="-11" type="curve" smooth="yes"/>
    </contour>
    <contour>
      <point x="153" y="55"/>
      <point x="141" y="78"/>
      <point x="141" y="100" type="curve" smooth="yes"/>
      <point x="141" y="149"/>
      <point x="188" y="181"/>
      <point x="270" y="186" type="curve"/>
      <point x="268" y="148"/>
      <point x="264" y="123"/>
      <point x="264" y="89" type="curve" smooth="yes"/>
      <point x="264" y="82" type="line"/>
      <point x="237" y="62"/>
      <point x="202" y="46"/>
      <point x="171" y="43" type="curve"/>
    </contour>
    <contour>
      <point x="354" y="1" type="move" name="ogonek"/>
    </contour>
    <contour>
      <point x="218" y="0" type="move" name="bottom"/>
    </contour>
    <contour>
      <point x="218" y="407" type="move" name="top"/>
    </contour>
  </outline>
</glyph>
<glyph name="b" format="1">
  <advance width="482"/>
  <unicode hex="0062"/>
  <outline>
    <contour>
      <point x="374" y="-9"/>
      <point x="445" y="70"/>
      <point x="445" y="212" type="curve" smooth="yes"/>
      <point x="445" y="335"/>
      <point x="385" y="410"/>
      <point x="285" y="410" type="curve" smooth="yes"/>
      <point x="241" y="410"/>
      <point x="197" y="393"/>
      <point x="160" y="365" type="curve"/>
      <point x="162" y="438"/>
      <point x="166" y="511"/>
      <point x="170" y="547" type="curve"/>
      <point x="120" y="547"/>
      <point x="84" y="541"/>
      <point x="46" y="527" type="curve"/>
      <point x="58" y="488"/>
      <point x="63" y="427"/>
      <point x="63" y="333" type="curve" smooth="yes"/>
      <point x="63" y="247"/>
      <point x="60" y="74"/>
      <point x="54" y="5" type="curve"/>
      <point x="69" y="2"/>
      <point x="82" y="0"/>
      <point x="94" y="0" type="curve"/>
      <point x="119" y="41" type="line"/>
      <point x="148" y="11"/>
      <point x="193" y="-9"/>
      <point x="246" y="-9" type="curve" smooth="yes"/>
    </contour>
    <contour>
      <point x="207" y="46"/>
      <point x="183" y="56"/>
      <point x="163" y="77" type="curve"/>
      <point x="158" y="102"/>
      <point x="156" y="135"/>
      <point x="156" y="192" type="curve" smooth="yes"/>
      <point x="156" y="219"/>
      <point x="157" y="262"/>
      <point x="158" y="308" type="curve"/>
      <point x="188" y="324"/>
      <point x="223" y="333"/>
      <point x="255" y="333" type="curve"/>
      <point x="309" y="312"/>
      <point x="341" y="261"/>
      <point x="341" y="176" type="curve" smooth="yes"/>
      <point x="341" y="91"/>
      <point x="304" y="46"/>
      <point x="233" y="46" type="curve" smooth="yes"/>
    </contour>
    <contour>
      <point x="242" y="407" type="move" name="top"/>
    </contour>
    <contour>
      <point x="242" y="0" type="move" name="bottom"/>
    </contour>
  </outline>
</glyph>
<glyph name="c" format="1">
  <advance width="408"/>
  <unicode hex="0063"/>
  <outline>
    <contour>
      <point x="278" y="-11"/>
      <point x="347" y="24"/>
      <point x="384" y="76" type="curve"/>
      <point x="376" y="111" type="line"/>
      <point x="345" y="87"/>
      <point x="301" y="74"/>
      <point x="255" y="74" type="curve" smooth="yes"/>
      <point x="174" y="74"/>
      <point x="142" y="118"/>
      <point x="142" y="218" type="curve" smooth="yes"/>
      <point x="142" y="283"/>
      <point x="169" y="340"/>
      <point x="206" y="362" type="curve"/>
      <point x="238" y="362"/>
      <point x="288" y="337"/>
      <point x="340" y="291" type="curve"/>
      <point x="355" y="321"/>
      <point x="371" y="369"/>
      <point x="371" y="394" type="curve"/>
      <point x="330" y="414"/>
      <point x="286" y="418"/>
      <point x="254" y="418" type="curve" smooth="yes"/>
      <point x="126" y="418"/>
      <point x="37" y="325"/>
      <point x="37" y="191" type="curve" smooth="yes"/>
      <point x="37" y="61"/>
      <point x="100" y="-11"/>
      <point x="213" y="-11" type="curve" smooth="yes"/>
    </contour>
    <contour>
      <point x="214" y="407" type="move" name="top"/>
    </contour>
    <contour>
      <point x="204" y="0" type="move" name="bottom"/>
    </contour>
  </outline>
</glyph>
<glyph name="d" format="1">
  <advance width="500"/>
  <unicode hex="0064"/>
  <outline>
    <contour>
      <point x="252" y="-12"/>
      <point x="298" y="9"/>
      <point x="333" y="43" type="curve"/>
      <point x="340" y="20"/>
      <point x="352" y="3"/>
      <point x="370" y="-11" type="curve"/>
      <point x="404" y="-7"/>
      <point x="437" y="8"/>
      <point x="463" y="29" type="curve"/>
      <point x="432" y="63"/>
      <point x="424" y="86"/>
      <point x="424" y="139" type="curve" smooth="yes"/>
      <point x="424" y="328"/>
      <point x="429" y="476"/>
      <point x="436" y="547" type="curve"/>
      <point x="393" y="547"/>
      <point x="354" y="543"/>
      <point x="312" y="527" type="curve"/>
      <point x="321" y="493"/>
      <point x="327" y="446"/>
      <point x="330" y="380" type="curve"/>
      <point x="295" y="406"/>
      <point x="256" y="418"/>
      <point x="213" y="418" type="curve" smooth="yes"/>
      <point x="100" y="418"/>
      <point x="42" y="343"/>
      <point x="42" y="198" type="curve" smooth="yes"/>
      <point x="42" y="60"/>
      <point x="99" y="-12"/>
      <point x="208" y="-12" type="curve" smooth="yes"/>
    </contour>
    <contour>
      <point x="180" y="53"/>
      <point x="146" y="108"/>
      <point x="146" y="191" type="curve" smooth="yes"/>
      <point x="146" y="281"/>
      <point x="182" y="328"/>
      <point x="250" y="328" type="curve" smooth="yes"/>
      <point x="280" y="328"/>
      <point x="309" y="321"/>
      <point x="332" y="307" type="curve"/>
      <point x="332" y="228"/>
      <point x="328" y="152"/>
      <point x="328" y="85" type="curve"/>
      <point x="299" y="63"/>
      <point x="267" y="47"/>
      <point x="237" y="43" type="curve"/>
    </contour>
    <contour>
      <point x="359" y="470" type="move" name="center"/>
    </contour>
    <contour>
      <point x="256" y="407" type="move" name="top"/>
    </contour>
    <contour>
      <point x="532" y="407" type="move" name="topright"/>
    </contour>
    <contour>
      <point x="256" y="0" type="move" name="bottom"/>
    </contour>
  </outline>
</glyph>
<glyph name="f" format="1">
  <advance width="317"/>
  <unicode hex="0066"/>
  <outline>
    <contour>
      <point x="170" y="-79"/>
      <point x="197" y="-33"/>
      <point x="197" y="63" type="curve" smooth="yes"/>
      <point x="197" y="110"/>
      <point x="190" y="182"/>
      <point x="190" y="278" type="curve" smooth="yes"/>
      <point x="190" y="340" type="line"/>
      <point x="230" y="339"/>
      <point x="257" y="335"/>
      <point x="279" y="328" type="curve"/>
      <point x="291" y="354"/>
      <point x="296" y="375"/>
      <point x="296" y="404" type="curve"/>
      <point x="273" y="399"/>
      <point x="237" y="397"/>
      <point x="192" y="396" type="curve"/>
      <point x="196" y="483"/>
      <point x="205" y="514"/>
      <point x="225" y="529" type="curve"/>
      <point x="254" y="528"/>
      <point x="296" y="506"/>
      <point x="339" y="469" type="curve"/>
      <point x="355" y="496"/>
      <point x="369" y="546"/>
      <point x="369" y="570" type="curve"/>
      <point x="340" y="580"/>
      <point x="306" y="585"/>
      <point x="269" y="585" type="curve" smooth="yes"/>
      <point x="176" y="585"/>
      <point x="106" y="514"/>
      <point x="90" y="404" type="curve"/>
      <point x="71" y="391"/>
      <point x="52" y="379"/>
      <point x="29" y="368" type="curve"/>
      <point x="29" y="344"/>
      <point x="39" y="338"/>
      <point x="90" y="337" type="curve"/>
      <point x="106" y="-28"/>
      <point x="100" y="-72"/>
      <point x="47" y="-143" type="curve"/>
      <point x="64" y="-159" type="line"/>
    </contour>
    <contour>
      <point x="147" y="407" type="move" name="top"/>
    </contour>
    <contour>
      <point x="147" y="0" type="move" name="bottom"/>
    </contour>
  </outline>
</glyph>
<glyph name="p" format="1">
  <advance width="516"/>
  <unicode hex="0070"/>
  <outline>
    <contour>
      <point x="123" y="-180"/>
      <point x="160" y="-174"/>
      <point x="198" y="-160" type="curve"/>
      <point x="189" y="-121"/>
      <point x="183" y="-68"/>
      <point x="181" y="7" type="curve"/>
      <point x="205" y="-4"/>
      <point x="232" y="-9"/>
      <point x="260" y="-9" type="curve" smooth="yes"/>
      <point x="395" y="-9"/>
      <point x="474" y="73"/>
      <point x="474" y="212" type="curve" smooth="yes"/>
      <point x="474" y="344"/>
      <point x="416" y="413"/>
      <point x="309" y="413" type="curve" smooth="yes"/>
      <point x="263" y="413"/>
      <point x="216" y="393"/>
      <point x="182" y="362" type="curve"/>
      <point x="175" y="395"/>
      <point x="156" y="414"/>
      <point x="122" y="414" type="curve" smooth="yes"/>
      <point x="104" y="414"/>
      <point x="72" y="405"/>
      <point x="47" y="378" type="curve"/>
      <point x="78" y="344"/>
      <point x="86" y="321"/>
      <point x="86" y="213" type="curve" smooth="yes"/>
      <point x="86" y="49"/>
      <point x="81" y="-104"/>
      <point x="74" y="-180" type="curve"/>
    </contour>
    <contour>
      <point x="227" y="42"/>
      <point x="199" y="55"/>
      <point x="178" y="80" type="curve"/>
      <point x="178" y="112" type="line" smooth="yes"/>
      <point x="178" y="193"/>
      <point x="182" y="259"/>
      <point x="183" y="309" type="curve"/>
      <point x="210" y="323"/>
      <point x="246" y="332"/>
      <point x="278" y="332" type="curve"/>
      <point x="332" y="311"/>
      <point x="364" y="253"/>
      <point x="364" y="177" type="curve" smooth="yes"/>
      <point x="364" y="92"/>
      <point x="325" y="42"/>
      <point x="257" y="42" type="curve" smooth="yes"/>
    </contour>
    <contour>
      <point x="263" y="407" type="move" name="top"/>
    </contour>
    <contour>
      <point x="263" y="0" type="move" name="bottom"/>
    </contour>
  </outline>
</glyph>
<glyph name="s" format="1">
  <advance width="397"/>
  <unicode hex="0073"/>
  <outline>
    <contour>
      <point x="304" y="-11"/>
      <point x="368" y="34"/>
      <point x="368" y="111" type="curve" smooth="yes"/>
      <point x="368" y="250"/>
      <point x="146" y="242"/>
      <point x="146" y="322" type="curve" smooth="yes"/>
      <point x="146" y="340"/>
      <point x="164" y="357"/>
      <point x="192" y="362" type="curve"/>
      <point x="223" y="362"/>
      <point x="273" y="336"/>
      <point x="322" y="293" type="curve"/>
      <point x="339" y="321"/>
      <point x="354" y="370"/>
      <point x="354" y="394" type="curve"/>
      <point x="312" y="410"/>
      <point x="259" y="418"/>
      <point x="200" y="418" type="curve" smooth="yes"/>
      <point x="105" y="418"/>
      <point x="40" y="373"/>
      <point x="40" y="307" type="curve" smooth="yes"/>
      <point x="40" y="160"/>
      <point x="263" y="169"/>
      <point x="263" y="98" type="curve" smooth="yes"/>
      <point x="263" y="67"/>
      <point x="233" y="51"/>
      <point x="176" y="51" type="curve" smooth="yes"/>
      <point x="124" y="51"/>
      <point x="77" y="72"/>
      <point x="52" y="104" type="curve"/>
      <point x="39" y="75"/>
      <point x="34" y="53"/>
      <point x="34" y="25" type="curve"/>
      <point x="74" y="1"/>
      <point x="128" y="-11"/>
      <point x="191" y="-11" type="curve" smooth="yes"/>
    </contour>
    <contour>
      <point x="199" y="407" type="move" name="top"/>
    </contour>
    <contour>
      <point x="194" y="0" type="move" name="bottom"/>
    </contour>
  </outline>
</glyph>
<glyph name="t" format="1">
  <advance width="313"/>
  <unicode hex="0074"/>
  <outline>
    <contour>
      <point x="211" y="-9"/>
      <point x="261" y="16"/>
      <point x="286" y="53" type="curve"/>
      <point x="280" y="82" type="line"/>
      <point x="261" y="78"/>
      <point x="234" y="74"/>
      <point x="205" y="73" type="curve"/>
      <point x="195" y="118"/>
      <point x="191" y="186"/>
      <point x="191" y="252" type="curve" smooth="yes"/>
      <point x="191" y="283"/>
      <point x="192" y="312"/>
      <point x="194" y="340" type="curve"/>
      <point x="231" y="339"/>
      <point x="258" y="335"/>
      <point x="277" y="328" type="curve"/>
      <point x="289" y="352"/>
      <point x="294" y="373"/>
      <point x="294" y="404" type="curve"/>
      <point x="275" y="400"/>
      <point x="244" y="397"/>
      <point x="196" y="396" type="curve"/>
      <point x="195" y="421"/>
      <point x="193" y="447"/>
      <point x="191" y="466" type="curve"/>
      <point x="157" y="469" type="line"/>
      <point x="116" y="426"/>
      <point x="74" y="393"/>
      <point x="27" y="368" type="curve"/>
      <point x="27" y="343"/>
      <point x="41" y="337"/>
      <point x="96" y="337" type="curve"/>
      <point x="97" y="327"/>
      <point x="98" y="310"/>
      <point x="98" y="297" type="curve" smooth="yes"/>
      <point x="98" y="209"/>
      <point x="94" y="146"/>
      <point x="94" y="76" type="curve" smooth="yes"/>
      <point x="94" y="13"/>
      <point x="113" y="-9"/>
      <point x="165" y="-9" type="curve" smooth="yes"/>
    </contour>
    <contour>
      <point x="148" y="204" type="move" name="center"/>
    </contour>
    <contour>
      <point x="168" y="407" type="move" name="top"/>
    </contour>
    <contour>
      <point x="311" y="407" type="move" name="topright"/>
    </contour>
    <contour>
      <point x="158" y="0" type="move" name="bottom"/>
    </contour>
  </outline>
</glyph>
<glyph name="w" format="1">
  <advance width="686"/>
  <unicode hex="0077"/>
  <outline>
    <contour>
      <point x="274" y="22" type="line"/>
      <point x="297" y="99"/>
      <point x="321" y="174"/>
      <point x="344" y="241" type="curve"/>
      <point x="360" y="187"/>
      <point x="376" y="131"/>
      <point x="395" y="73" type="curve" smooth="yes"/>
      <point x="413" y="17"/>
      <point x="440" y="-9"/>
      <point x="478" y="-9" type="curve"/>
      <point x="544" y="22" type="line"/>
      <point x="590" y="175"/>
      <point x="641" y="324"/>
      <point x="681" y="413" type="curve"/>
      <point x="644" y="413"/>
      <point x="615" y="410"/>
      <point x="583" y="402" type="curve"/>
      <point x="596" y="369"/>
      <point x="584" y="323"/>
      <point x="501" y="77" type="curve"/>
      <point x="476" y="137"/>
      <point x="412" y="354"/>
      <point x="402" y="413" type="curve"/>
      <point x="353" y="413"/>
      <point x="312" y="407"/>
      <point x="275" y="392" type="curve"/>
      <point x="287" y="380"/>
      <point x="300" y="359"/>
      <point x="312" y="330" type="curve"/>
      <point x="301" y="285"/>
      <point x="277" y="210"/>
      <point x="232" y="75" type="curve"/>
      <point x="212" y="120"/>
      <point x="142" y="353"/>
      <point x="133" y="413" type="curve"/>
      <point x="83" y="413"/>
      <point x="42" y="407"/>
      <point x="5" y="392" type="curve"/>
      <point x="24" y="374"/>
      <point x="47" y="326"/>
      <point x="65" y="272" type="curve" smooth="yes"/>
      <point x="84" y="208"/>
      <point x="102" y="144"/>
      <point x="125" y="73" type="curve" smooth="yes"/>
      <point x="143" y="17"/>
      <point x="170" y="-9"/>
      <point x="208" y="-9" type="curve"/>
    </contour>
    <contour>
      <point x="343" y="407" type="move" name="top"/>
    </contour>
    <contour>
      <point x="343" y="0" type="move" name="bottom"/>
    </contour>
  </outline>
</glyph>
<glyph name="braceleft" format="1">
  <advance width="358"/>
  <unicode hex="007B"/>
  <outline>
    <contour>
      <point x="328" y="-104"/>
      <point x="330" y="-90"/>
      <point x="330" y="-77" type="curve" smooth="yes"/>
      <point x="330" y="-60"/>
      <point x="328" y="-43"/>
      <point x="325" y="-26" type="curve"/>
      <point x="283" y="-32"/>
      <point x="248" y="-35"/>
      <point x="219" y="-35" type="curve"/>
      <point x="204" y="-17"/>
      <point x="191" y="18"/>
      <point x="191" y="78" type="curve" smooth="yes"/>
      <point x="191" y="103"/>
      <point x="192" y="129"/>
      <point x="192" y="154" type="curve" smooth="yes"/>
      <point x="192" y="208"/>
      <point x="185" y="254"/>
      <point x="139" y="262" type="curve"/>
      <point x="139" y="266" type="line"/>
      <point x="185" y="274"/>
      <point x="192" y="320"/>
      <point x="192" y="374" type="curve" smooth="yes"/>
      <point x="192" y="398"/>
      <point x="191" y="424"/>
      <point x="191" y="449" type="curve" smooth="yes"/>
      <point x="191" y="510"/>
      <point x="204" y="545"/>
      <point x="219" y="563" type="curve"/>
      <point x="248" y="563"/>
      <point x="283" y="560"/>
      <point x="325" y="554" type="curve"/>
      <point x="328" y="571"/>
      <point x="330" y="588"/>
      <point x="330" y="605" type="curve" smooth="yes"/>
      <point x="330" y="618"/>
      <point x="328" y="632"/>
      <point x="325" y="647" type="curve"/>
      <point x="184" y="647"/>
      <point x="80" y="612"/>
      <point x="80" y="478" type="curve" smooth="yes"/>
      <point x="80" y="434"/>
      <point x="101" y="366"/>
      <point x="101" y="328" type="curve" smooth="yes"/>
      <point x="101" y="305"/>
      <point x="84" y="289"/>
      <point x="42" y="288" type="curve"/>
      <point x="42" y="240" type="line"/>
      <point x="84" y="239"/>
      <point x="101" y="223"/>
      <point x="101" y="200" type="curve" smooth="yes"/>
      <point x="101" y="155"/>
      <point x="80" y="94"/>
      <point x="80" y="50" type="curve" smooth="yes"/>
      <point x="80" y="-84"/>
      <point x="184" y="-119"/>
      <point x="325" y="-119" type="curve"/>
    </contour>
  </outline>
</glyph>
<glyph name="asciitilde" format="1">
  <advance width="533"/>
  <unicode hex="007E"/>
  <outline>
    <contour>
      <point x="411" y="207"/>
      <point x="452" y="227"/>
      <point x="465" y="299" type="curve"/>
      <point x="445" y="308"/>
      <point x="421" y="315"/>
      <point x="400" y="317" type="curve"/>
      <point x="394" y="290"/>
      <point x="376" y="280"/>
      <point x="351" y="280" type="curve" smooth="yes"/>
      <point x="287" y="280"/>
      <point x="229" y="325"/>
      <point x="167" y="325" type="curve" smooth="yes"/>
      <point x="121" y="325"/>
      <point x="79" y="304"/>
      <point x="67" y="233" type="curve"/>
      <point x="87" y="224"/>
      <point x="111" y="217"/>
      <point x="132" y="215" type="curve"/>
      <point x="138" y="241"/>
      <point x="156" y="251"/>
      <point x="180" y="251" type="curve" smooth="yes"/>
      <point x="244" y="251"/>
      <point x="303" y="207"/>
      <point x="365" y="207" type="curve" smooth="yes"/>
    </contour>
  </outline>
</glyph>
<glyph name="cent" format="1">
  <advance width="408"/>
  <unicode hex="00A2"/>
  <outline>
    <contour>
      <point x="255" y="453" type="line"/>
      <point x="255" y="502"/>
      <point x="257" y="545"/>
      <point x="259" y="578" type="curve"/>
      <point x="246" y="582"/>
      <point x="233" y="584"/>
      <point x="222" y="584" type="curve" smooth="yes"/>
      <point x="211" y="584"/>
      <point x="197" y="581"/>
      <point x="187" y="578" type="curve"/>
      <point x="191" y="555"/>
      <point x="193" y="514"/>
      <point x="195" y="453" type="curve"/>
    </contour>
    <contour>
      <point x="238" y="-56"/>
      <point x="250" y="-55"/>
      <point x="262" y="-51" type="curve"/>
      <point x="258" y="-29"/>
      <point x="255" y="11"/>
      <point x="253" y="70" type="curve"/>
      <point x="193" y="70" type="line"/>
      <point x="192" y="22"/>
      <point x="191" y="-20"/>
      <point x="190" y="-51" type="curve"/>
      <point x="204" y="-55"/>
      <point x="216" y="-56"/>
      <point x="227" y="-56" type="curve" smooth="yes"/>
    </contour>
    <component base="c" yOffset="61"/>
  </outline>
</glyph>
<glyph name="copyright" format="1">
  <advance width="731"/>
  <unicode hex="00A9"/>
  <outline>
    <contour>
      <point x="534" y="-20"/>
      <point x="672" y="118"/>
      <point x="672" y="287" type="curve" smooth="yes"/>
      <point x="672" y="456"/>
      <point x="534" y="594"/>
      <point x="365" y="594" type="curve" smooth="yes"/>
      <point x="196" y="594"/>
      <point x="58" y="456"/>
      <point x="58" y="287" type="curve" smooth="yes"/>
      <point x="58" y="118"/>
      <point x="196" y="-20"/>
      <point x="365" y="-20" type="curve" smooth="yes"/>
    </contour>
    <contour>
      <point x="412" y="114"/>
      <point x="468" y="136"/>
      <point x="497" y="172" type="curve"/>
      <point x="492" y="191" type="line"/>
      <point x="463" y="175"/>
      <point x="424" y="166"/>
      <point x="379" y="166" type="curve" smooth="yes"/>
      <point x="314" y="166"/>
      <point x="264" y="204"/>
      <point x="264" y="296" type="curve" smooth="yes"/>
      <point x="264" y="361"/>
      <point x="303" y="423"/>
      <point x="352" y="435" type="curve"/>
      <point x="377" y="435"/>
      <point x="430" y="414"/>
      <point x="468" y="389" type="curve"/>
      <point x="480" y="403"/>
      <point x="488" y="433"/>
      <point x="488" y="452" type="curve"/>
      <point x="458" y="463"/>
      <point x="424" y="468"/>
      <point x="385" y="468" type="curve" smooth="yes"/>
      <point x="275" y="468"/>
      <point x="197" y="390"/>
      <point x="197" y="278" type="curve" smooth="yes"/>
      <point x="197" y="173"/>
      <point x="256" y="114"/>
      <point x="359" y="114" type="curve" smooth="yes"/>
    </contour>
    <contour>
      <point x="224" y="31"/>
      <point x="109" y="147"/>
      <point x="109" y="287" type="curve" smooth="yes"/>
      <point x="109" y="428"/>
      <point x="224" y="543"/>
      <point x="365" y="543" type="curve" smooth="yes"/>
      <point x="505" y="543"/>
      <point x="621" y="428"/>
      <point x="621" y="287" type="curve" smooth="yes"/>
      <point x="621" y="147"/>
      <point x="505" y="31"/>
      <point x="365" y="31" type="curve" smooth="yes"/>
    </contour>
  </outline>
</glyph>
<glyph name="guillemotleft" format="1">
  <advance width="481"/>
  <unicode hex="00AB"/>
  <outline>
    <contour>
      <point x="405" y="60"/>
      <point x="424" y="80"/>
      <point x="443" y="108" type="curve"/>
      <point x="329" y="222" type="line"/>
      <point x="443" y="336" type="line"/>
      <point x="424" y="364"/>
      <point x="405" y="385"/>
      <point x="373" y="409" type="curve"/>
      <point x="331" y="348"/>
      <point x="290" y="299"/>
      <point x="232" y="236" type="curve"/>
      <point x="232" y="209" type="line"/>
      <point x="290" y="145"/>
      <point x="331" y="97"/>
      <point x="373" y="35" type="curve"/>
    </contour>
    <contour>
      <point x="201" y="60"/>
      <point x="220" y="80"/>
      <point x="238" y="108" type="curve"/>
      <point x="125" y="222" type="line"/>
      <point x="238" y="336" type="line"/>
      <point x="220" y="364"/>
      <point x="201" y="385"/>
      <point x="169" y="409" type="curve"/>
      <point x="127" y="348"/>
      <point x="86" y="299"/>
      <point x="28" y="236" type="curve"/>
      <point x="28" y="209" type="line"/>
      <point x="86" y="145"/>
      <point x="127" y="97"/>
      <point x="169" y="35" type="curve"/>
    </contour>
  </outline>
</glyph>
<glyph name="logicalnot" format="1">
  <advance width="533"/>
  <unicode hex="00AC"/>
  <outline>
    <contour>
      <point x="438" y="67"/>
      <point x="452" y="69"/>
      <point x="465" y="72" type="curve"/>
      <point x="462" y="137"/>
      <point x="461" y="202"/>
      <point x="461" y="307" type="curve"/>
      <point x="396" y="304"/>
      <point x="331" y="303"/>
      <point x="267" y="303" type="curve" smooth="yes"/>
      <point x="202" y="303"/>
      <point x="137" y="304"/>
      <point x="72" y="307" type="curve"/>
      <point x="69" y="293"/>
      <point x="67" y="278"/>
      <point x="67" y="265" type="curve" smooth="yes"/>
      <point x="67" y="252"/>
      <point x="69" y="237"/>
      <point x="72" y="224" type="curve"/>
      <point x="137" y="227"/>
      <point x="202" y="229"/>
      <point x="267" y="229" type="curve" smooth="yes"/>
      <point x="308" y="229"/>
      <point x="351" y="228"/>
      <point x="387" y="227" type="curve"/>
      <point x="387" y="175"/>
      <point x="385" y="121"/>
      <point x="383" y="72" type="curve"/>
      <point x="396" y="69"/>
      <point x="412" y="67"/>
      <point x="424" y="67" type="curve" smooth="yes"/>
    </contour>
  </outline>
</glyph>
<glyph name="uni00B5" format="1">
  <advance width="494"/>
  <unicode hex="00B5"/>
  <outline>
    <contour>
      <point x="150" y="-180"/>
      <point x="181" y="-170"/>
      <point x="205" y="-144" type="curve"/>
      <point x="177" y="-108"/>
      <point x="168" y="-83"/>
      <point x="166" y="10" type="curve"/>
      <point x="184" y="3"/>
      <point x="200" y="0"/>
      <point x="219" y="0" type="curve" smooth="yes"/>
      <point x="266" y="0"/>
      <point x="310" y="23"/>
      <point x="327" y="47" type="curve"/>
      <point x="337" y="16"/>
      <point x="357" y="0"/>
      <point x="385" y="0" type="curve" smooth="yes"/>
      <point x="405" y="0"/>
      <point x="430" y="10"/>
      <point x="458" y="29" type="curve"/>
      <point x="427" y="60"/>
      <point x="419" y="82"/>
      <point x="419" y="132" type="curve" smooth="yes"/>
      <point x="419" y="171"/>
      <point x="425" y="322"/>
      <point x="431" y="417" type="curve"/>
      <point x="388" y="417"/>
      <point x="357" y="411"/>
      <point x="322" y="397" type="curve"/>
      <point x="322" y="104" type="line"/>
      <point x="296" y="83"/>
      <point x="266" y="74"/>
      <point x="230" y="74" type="curve" smooth="yes"/>
      <point x="185" y="74"/>
      <point x="167" y="95"/>
      <point x="167" y="146" type="curve" smooth="yes"/>
      <point x="167" y="415" type="line"/>
      <point x="123" y="415"/>
      <point x="90" y="409"/>
      <point x="56" y="397" type="curve"/>
      <point x="69" y="368"/>
      <point x="75" y="322"/>
      <point x="75" y="257" type="curve" smooth="yes"/>
      <point x="75" y="100"/>
      <point x="68" y="-16"/>
      <point x="68" y="-97" type="curve" smooth="yes"/>
      <point x="68" y="-149"/>
      <point x="87" y="-180"/>
      <point x="130" y="-180" type="curve" smooth="yes"/>
    </contour>
  </outline>
</glyph>
<glyph name="ae" format="1">
  <advance width="689"/>
  <unicode hex="00E6"/>
  <outline>
    <contour>
      <point x="178" y="-11"/>
      <point x="245" y="18"/>
      <point x="297" y="61" type="curve"/>
      <point x="326" y="14"/>
      <point x="374" y="-11"/>
      <point x="439" y="-11" type="curve" smooth="yes"/>
      <point x="514" y="-11"/>
      <point x="591" y="25"/>
      <point x="632" y="78" type="curve"/>
      <point x="623" y="111" type="line"/>
      <point x="586" y="86"/>
      <point x="536" y="73"/>
      <point x="481" y="73" type="curve" smooth="yes"/>
      <point x="414" y="73"/>
      <point x="381" y="104"/>
      <point x="371" y="174" type="curve"/>
      <point x="471" y="176"/>
      <point x="578" y="190"/>
      <point x="647" y="207" type="curve"/>
      <point x="647" y="346"/>
      <point x="589" y="418"/>
      <point x="480" y="418" type="curve" smooth="yes"/>
      <point x="427" y="418"/>
      <point x="380" y="402"/>
      <point x="344" y="372" type="curve"/>
      <point x="321" y="402"/>
      <point x="282" y="418"/>
      <point x="229" y="418" type="curve" smooth="yes"/>
      <point x="163" y="418"/>
      <point x="94" y="378"/>
      <point x="56" y="319" type="curve"/>
      <point x="64" y="286" type="line"/>
      <point x="98" y="309"/>
      <point x="144" y="323"/>
      <point x="187" y="323" type="curve" smooth="yes"/>
      <point x="257" y="323"/>
      <point x="267" y="289"/>
      <point x="267" y="216" type="curve"/>
      <point x="112" y="205"/>
      <point x="37" y="162"/>
      <point x="37" y="83" type="curve" smooth="yes"/>
      <point x="37" y="28"/>
      <point x="75" y="-11"/>
      <point x="127" y="-11" type="curve" smooth="yes"/>
    </contour>
    <contour>
      <point x="153" y="55"/>
      <point x="141" y="78"/>
      <point x="141" y="100" type="curve" smooth="yes"/>
      <point x="141" y="145"/>
      <point x="186" y="175"/>
      <point x="265" y="180" type="curve"/>
      <point x="266" y="147"/>
      <point x="271" y="118"/>
      <point x="280" y="94" type="curve"/>
      <point x="252" y="69"/>
      <point x="208" y="47"/>
      <point x="171" y="43" type="curve"/>
    </contour>
    <contour>
      <point x="368" y="283"/>
      <point x="393" y="342"/>
      <point x="432" y="366" type="curve"/>
      <point x="489" y="366"/>
      <point x="530" y="317"/>
      <point x="531" y="252" type="curve"/>
      <point x="494" y="234"/>
      <point x="428" y="219"/>
      <point x="368" y="213" type="curve"/>
    </contour>
    <contour>
      <point x="345" y="407" type="move" name="top"/>
    </contour>
    <contour>
      <point x="345" y="0" type="move" name="bottom"/>
    </contour>
  </outline>
</glyph>
<glyph name="Eng" format="1">
  <advance width="537"/>
  <unicode hex="014A"/>
  <outline>
    <contour>
      <point x="431" y="-122"/>
      <point x="476" y="-63"/>
      <point x="476" y="63" type="curve" smooth="yes"/>
      <point x="476" y="229" type="line" smooth="yes"/>
      <point x="476" y="332"/>
      <point x="480" y="461"/>
      <point x="484" y="527" type="curve"/>
      <point x="467" y="531"/>
      <point x="452" y="533"/>
      <point x="439" y="533" type="curve" smooth="yes"/>
      <point x="426" y="533"/>
      <point x="412" y="531"/>
      <point x="398" y="527" type="curve"/>
      <point x="406" y="497"/>
      <point x="409" y="420"/>
      <point x="409" y="300" type="curve" smooth="yes"/>
      <point x="409" y="245"/>
      <point x="408" y="181"/>
      <point x="407" y="125" type="curve"/>
      <point x="328" y="256"/>
      <point x="221" y="443"/>
      <point x="177" y="527" type="curve"/>
      <point x="150" y="531"/>
      <point x="129" y="533"/>
      <point x="110" y="533" type="curve" smooth="yes"/>
      <point x="89" y="533"/>
      <point x="53" y="528"/>
      <point x="52" y="527" type="curve"/>
      <point x="59" y="497"/>
      <point x="63" y="419"/>
      <point x="63" y="298" type="curve" smooth="yes"/>
      <point x="63" y="195"/>
      <point x="60" y="66"/>
      <point x="55" y="0" type="curve"/>
      <point x="72" y="-4"/>
      <point x="87" y="-6"/>
      <point x="100" y="-6" type="curve" smooth="yes"/>
      <point x="113" y="-6"/>
      <point x="127" y="-4"/>
      <point x="140" y="0" type="curve"/>
      <point x="133" y="30"/>
      <point x="129" y="107"/>
      <point x="129" y="227" type="curve" smooth="yes"/>
      <point x="129" y="283"/>
      <point x="130" y="345"/>
      <point x="132" y="402" type="curve"/>
      <point x="211" y="271"/>
      <point x="318" y="83"/>
      <point x="362" y="0" type="curve" smooth="yes"/>
      <point x="383" y="-39"/>
      <point x="356" y="-117"/>
      <point x="278" y="-168" type="curve"/>
      <point x="291" y="-189" type="line"/>
    </contour>
    <contour>
      <point x="270" y="527" type="move" name="top"/>
    </contour>
    <contour>
      <point x="270" y="0" type="move" name="bottom"/>
    </contour>
  </outline>
</glyph>
<glyph name="eng" format="1">
  <advance width="519"/>
  <unicode hex="014B"/>
  <outline>
    <contour>
      <point x="382" y="-111"/>
      <point x="444" y="-63"/>
      <point x="444" y="63" type="curve" smooth="yes"/>
      <point x="444" y="115"/>
      <point x="448" y="232"/>
      <point x="448" y="280" type="curve" smooth="yes"/>
      <point x="448" y="362"/>
      <point x="418" y="418"/>
      <point x="331" y="418" type="curve" smooth="yes"/>
      <point x="281" y="418"/>
      <point x="232" y="394"/>
      <point x="197" y="354" type="curve"/>
      <point x="191" y="392"/>
      <point x="172" y="414"/>
      <point x="133" y="414" type="curve" smooth="yes"/>
      <point x="114" y="414"/>
      <point x="82" y="405"/>
      <point x="56" y="378" type="curve"/>
      <point x="87" y="344"/>
      <point x="95" y="321"/>
      <point x="95" y="213" type="curve" smooth="yes"/>
      <point x="95" y="139"/>
      <point x="92" y="57"/>
      <point x="88" y="0" type="curve"/>
      <point x="111" y="-4"/>
      <point x="135" y="-6"/>
      <point x="154" y="-6" type="curve" smooth="yes"/>
      <point x="174" y="-6"/>
      <point x="195" y="-4"/>
      <point x="214" y="0" type="curve"/>
      <point x="201" y="29"/>
      <point x="194" y="82"/>
      <point x="194" y="150" type="curve" smooth="yes"/>
      <point x="194" y="211"/>
      <point x="196" y="262"/>
      <point x="198" y="302" type="curve"/>
      <point x="220" y="317"/>
      <point x="246" y="323"/>
      <point x="279" y="323" type="curve" smooth="yes"/>
      <point x="326" y="323"/>
      <point x="345" y="301"/>
      <point x="345" y="248" type="curve" smooth="yes"/>
      <point x="345" y="106" type="line" smooth="yes"/>
      <point x="345" y="-52"/>
      <point x="312" y="-106"/>
      <point x="246" y="-168" type="curve"/>
      <point x="259" y="-189" type="line"/>
    </contour>
  </outline>
</glyph>
<glyph name="florin" format="1">
  <advance width="326"/>
  <unicode hex="0192"/>
  <outline>
    <contour>
      <point x="205" y="-39"/>
      <point x="200" y="116"/>
      <point x="200" y="278" type="curve" smooth="yes"/>
      <point x="200" y="460"/>
      <point x="207" y="508"/>
      <point x="235" y="529" type="curve"/>
      <point x="263" y="528"/>
      <point x="305" y="506"/>
      <point x="349" y="470" type="curve"/>
      <point x="365" y="497"/>
      <point x="378" y="547"/>
      <point x="378" y="571" type="curve"/>
      <point x="349" y="580"/>
      <point x="315" y="585"/>
      <point x="279" y="585" type="curve" smooth="yes"/>
      <point x="130" y="585"/>
      <point x="99" y="447"/>
      <point x="99" y="352" type="curve" smooth="yes"/>
      <point x="99" y="228"/>
      <point x="104" y="141"/>
      <point x="104" y="75" type="curve" smooth="yes"/>
      <point x="104" y="2"/>
      <point x="101" y="-52"/>
      <point x="90" y="-99" type="curve"/>
      <point x="127" y="-110"/>
      <point x="164" y="-114"/>
      <point x="212" y="-114" type="curve"/>
    </contour>
    <component base="uni0335" xOffset="-27" yOffset="70" xScale="0.943"/>
  </outline>
</glyph>
<glyph name="uni0237" format="1">
  <advance width="247"/>
  <unicode hex="0237"/>
  <outline>
    <contour>
      <point x="115" y="-111"/>
      <point x="176" y="-63"/>
      <point x="176" y="63" type="curve" smooth="yes"/>
      <point x="176" y="110"/>
      <point x="173" y="129"/>
      <point x="173" y="172" type="curve" smooth="yes"/>
      <point x="173" y="257"/>
      <point x="175" y="374"/>
      <point x="180" y="417" type="curve"/>
      <point x="137" y="417"/>
      <point x="100" y="413"/>
      <point x="57" y="397" type="curve"/>
      <point x="76" y="367"/>
      <point x="78" y="320"/>
      <point x="78" y="106" type="curve" smooth="yes"/>
      <point x="78" y="-52"/>
      <point x="45" y="-106"/>
      <point x="-21" y="-168" type="curve"/>
      <point x="-9" y="-189" type="line"/>
    </contour>
    <contour>
      <point x="125" y="407" type="move" name="top"/>
    </contour>
    <contour>
      <point x="125" y="0" type="move" name="bottom"/>
    </contour>
  </outline>
</glyph>
<glyph name="gravecomb" format="1">
  <advance width="207"/>
  <unicode hex="0300"/>
  <outline>
    <contour>
      <point x="207" y="500" type="line"/>
      <point x="156" y="523"/>
      <point x="112" y="570"/>
      <point x="104" y="611" type="curve"/>
      <point x="52" y="611"/>
      <point x="17" y="595"/>
      <point x="0" y="564" type="curve"/>
      <point x="40" y="519"/>
      <point x="113" y="486"/>
      <point x="198" y="474" type="curve"/>
    </contour>
    <contour>
      <point x="104" y="607" type="move" name="top"/>
    </contour>
    <contour>
      <point x="105" y="407" type="move" name="_top"/>
    </contour>
  </outline>
</glyph>
<glyph name="uni0302" format="1">
  <advance width="276"/>
  <unicode hex="0302"/>
  <outline>
    <contour>
      <point x="121" y="557" type="line"/>
      <point x="176" y="475" type="line"/>
      <point x="215" y="475"/>
      <point x="246" y="479"/>
      <point x="276" y="489" type="curve"/>
      <point x="245" y="524"/>
      <point x="220" y="560"/>
      <point x="188" y="617" type="curve"/>
      <point x="150" y="617"/>
      <point x="119" y="614"/>
      <point x="90" y="603" type="curve"/>
      <point x="66" y="567"/>
      <point x="28" y="517"/>
      <point x="0" y="483" type="curve"/>
      <point x="27" y="477"/>
      <point x="47" y="475"/>
      <point x="68" y="475" type="curve"/>
    </contour>
    <contour>
      <point x="137" y="617" type="move" name="top"/>
    </contour>
    <contour>
      <point x="137" y="407" type="move" name="_top"/>
    </contour>
  </outline>
</glyph>
<glyph name="uni0304" format="1">
  <advance width="295"/>
  <unicode hex="0304"/>
  <outline>
    <contour>
      <point x="44" y="509"/>
      <point x="102" y="515"/>
      <point x="152" y="515" type="curve" smooth="yes"/>
      <point x="189" y="515"/>
      <point x="226" y="514"/>
      <point x="267" y="511" type="curve"/>
      <point x="275" y="542"/>
      <point x="277" y="569"/>
      <point x="273" y="599" type="curve"/>
      <point x="250" y="593"/>
      <point x="193" y="586"/>
      <point x="143" y="586" type="curve" smooth="yes"/>
      <point x="105" y="586"/>
      <point x="68" y="587"/>
      <point x="28" y="590" type="curve"/>
      <point x="19" y="559"/>
      <point x="17" y="532"/>
      <point x="21" y="502" type="curve"/>
    </contour>
    <contour>
      <point x="148" y="603" type="move" name="top"/>
    </contour>
    <contour>
      <point x="148" y="407" type="move" name="_top"/>
    </contour>
  </outline>
</glyph>
<glyph name="uni0306" format="1">
  <advance width="282"/>
  <unicode hex="0306"/>
  <outline>
    <contour>
      <point x="212" y="480"/>
      <point x="262" y="531"/>
      <point x="262" y="604" type="curve"/>
      <point x="250" y="612"/>
      <point x="230" y="617"/>
      <point x="212" y="617" type="curve"/>
      <point x="212" y="569"/>
      <point x="191" y="539"/>
      <point x="158" y="539" type="curve" smooth="yes"/>
      <point x="127" y="539"/>
      <point x="107" y="568"/>
      <point x="107" y="617" type="curve"/>
      <point x="71" y="617"/>
      <point x="45" y="612"/>
      <point x="20" y="599" type="curve"/>
      <point x="20" y="529"/>
      <point x="71" y="480"/>
      <point x="143" y="480" type="curve" smooth="yes"/>
    </contour>
    <contour>
      <point x="142" y="612" type="move" name="top"/>
    </contour>
    <contour>
      <point x="142" y="407" type="move" name="_top"/>
    </contour>
  </outline>
</glyph>
<glyph name="uni0308" format="1">
  <advance width="377"/>
  <unicode hex="0308"/>
  <outline>
    <contour>
      <point x="161" y="497"/>
      <point x="182" y="518"/>
      <point x="203" y="542" type="curve"/>
      <point x="178" y="562"/>
      <point x="157" y="583"/>
      <point x="137" y="608" type="curve"/>
      <point x="113" y="587"/>
      <point x="92" y="566"/>
      <point x="71" y="542" type="curve"/>
      <point x="96" y="522"/>
      <point x="117" y="501"/>
      <point x="137" y="477" type="curve"/>
    </contour>
    <contour>
      <point x="264" y="497"/>
      <point x="285" y="518"/>
      <point x="306" y="542" type="curve"/>
      <point x="281" y="562"/>
      <point x="260" y="583"/>
      <point x="240" y="608" type="curve"/>
      <point x="216" y="587"/>
      <point x="195" y="566"/>
      <point x="175" y="542" type="curve"/>
      <point x="199" y="522"/>
      <point x="220" y="501"/>
      <point x="240" y="477" type="curve"/>
    </contour>
    <contour>
      <point x="188" y="607" type="move" name="top"/>
    </contour>
    <contour>
      <point x="188" y="407" type="move" name="_top"/>
    </contour>
  </outline>
</glyph>
<glyph name="uni030A" format="1">
  <advance width="253"/>
  <unicode hex="030A"/>
  <outline>
    <contour>
      <point x="179" y="457"/>
      <point x="223" y="496"/>
      <point x="223" y="551" type="curve" smooth="yes"/>
      <point x="223" y="603"/>
      <point x="187" y="637"/>
      <point x="133" y="637" type="curve" smooth="yes"/>
      <point x="72" y="637"/>
      <point x="29" y="598"/>
      <point x="29" y="542" type="curve" smooth="yes"/>
      <point x="29" y="491"/>
      <point x="64" y="457"/>
      <point x="117" y="457" type="curve" smooth="yes"/>
    </contour>
    <contour>
      <point x="105" y="500"/>
      <point x="92" y="518"/>
      <point x="92" y="546" type="curve" smooth="yes"/>
      <point x="92" y="576"/>
      <point x="106" y="594"/>
      <point x="129" y="594" type="curve"/>
      <point x="149" y="588"/>
      <point x="161" y="570"/>
      <point x="161" y="546" type="curve" smooth="yes"/>
      <point x="161" y="517"/>
      <point x="147" y="500"/>
      <point x="126" y="500" type="curve" smooth="yes"/>
    </contour>
    <contour>
      <point x="127" y="645" type="move" name="top"/>
    </contour>
    <contour>
      <point x="127" y="407" type="move" name="_top"/>
    </contour>
  </outline>
</glyph>
<glyph name="uni0335" format="1">
  <advance width="411"/>
  <unicode hex="0335"/>
  <outline>
    <contour>
      <point x="96" y="228"/>
      <point x="122" y="232"/>
      <point x="201" y="232" type="curve" smooth="yes"/>
      <point x="256" y="232"/>
      <point x="325" y="229"/>
      <point x="361" y="224" type="curve"/>
      <point x="363" y="238"/>
      <point x="365" y="254"/>
      <point x="365" y="266" type="curve" smooth="yes"/>
      <point x="365" y="280"/>
      <point x="363" y="294"/>
      <point x="361" y="307" type="curve"/>
      <point x="319" y="300"/>
      <point x="290" y="296"/>
      <point x="212" y="296" type="curve" smooth="yes"/>
      <point x="156" y="296"/>
      <point x="89" y="299"/>
      <point x="52" y="304" type="curve"/>
      <point x="49" y="290"/>
      <point x="47" y="275"/>
      <point x="47" y="262" type="curve" smooth="yes"/>
      <point x="47" y="249"/>
      <point x="49" y="234"/>
      <point x="52" y="221" type="curve"/>
    </contour>
    <contour>
      <point x="206" y="264" type="move" name="_center"/>
    </contour>
  </outline>
</glyph>
<glyph name="uni0337" format="1">
  <advance width="358"/>
  <unicode hex="0337"/>
  <outline>
    <contour>
      <point x="108" y="187"/>
      <point x="130" y="203"/>
      <point x="192" y="234" type="curve" smooth="yes"/>
      <point x="235" y="256"/>
      <point x="291" y="281"/>
      <point x="320" y="291" type="curve"/>
      <point x="314" y="315"/>
      <point x="298" y="345"/>
      <point x="282" y="364" type="curve"/>
      <point x="252" y="341"/>
      <point x="231" y="326"/>
      <point x="169" y="294" type="curve" smooth="yes"/>
      <point x="125" y="272"/>
      <point x="69" y="247"/>
      <point x="40" y="237" type="curve"/>
      <point x="46" y="213"/>
      <point x="62" y="184"/>
      <point x="78" y="164" type="curve"/>
    </contour>
    <contour>
      <point x="180" y="264" type="move" name="_center"/>
    </contour>
  </outline>
</glyph>
<glyph name="uni0394" format="1">
  <advance width="517"/>
  <unicode hex="0394"/>
  <outline>
    <contour>
      <point x="90" y="3"/>
      <point x="175" y="4"/>
      <point x="259" y="4" type="curve" smooth="yes"/>
      <point x="344" y="4"/>
      <point x="428" y="3"/>
      <point x="513" y="0" type="curve"/>
      <point x="485" y="56"/>
      <point x="361" y="372"/>
      <point x="309" y="529" type="curve"/>
      <point x="293" y="532"/>
      <point x="277" y="534"/>
      <point x="261" y="534" type="curve" smooth="yes"/>
      <point x="245" y="534"/>
      <point x="228" y="532"/>
      <point x="210" y="529" type="curve"/>
      <point x="171" y="411"/>
      <point x="46" y="83"/>
      <point x="5" y="0" type="curve"/>
    </contour>
    <contour>
      <point x="207" y="78"/>
      <point x="157" y="79"/>
      <point x="111" y="81" type="curve"/>
      <point x="147" y="181"/>
      <point x="202" y="325"/>
      <point x="238" y="410" type="curve"/>
      <point x="271" y="335"/>
      <point x="328" y="183"/>
      <point x="365" y="80" type="curve"/>
      <point x="331" y="79"/>
      <point x="295" y="78"/>
      <point x="259" y="78" type="curve" smooth="yes"/>
    </contour>
  </outline>
</glyph>
<glyph name="pi" format="1">
  <advance width="541"/>
  <unicode hex="03C0"/>
  <outline>
    <contour>
      <point x="171" y="-6"/>
      <point x="190" y="-4"/>
      <point x="210" y="-1" type="curve"/>
      <point x="199" y="22"/>
      <point x="194" y="81"/>
      <point x="194" y="176" type="curve" smooth="yes"/>
      <point x="194" y="221"/>
      <point x="195" y="272"/>
      <point x="198" y="318" type="curve"/>
      <point x="343" y="318" type="line"/>
      <point x="344" y="293"/>
      <point x="345" y="265"/>
      <point x="345" y="231" type="curve" smooth="yes"/>
      <point x="345" y="151"/>
      <point x="340" y="51"/>
      <point x="335" y="-1" type="curve"/>
      <point x="359" y="-4"/>
      <point x="379" y="-6"/>
      <point x="397" y="-6" type="curve" smooth="yes"/>
      <point x="416" y="-6"/>
      <point x="436" y="-4"/>
      <point x="456" y="-1" type="curve"/>
      <point x="445" y="22"/>
      <point x="440" y="81"/>
      <point x="440" y="176" type="curve" smooth="yes"/>
      <point x="440" y="220"/>
      <point x="441" y="273"/>
      <point x="444" y="318" type="curve"/>
      <point x="486" y="313" type="line"/>
      <point x="505" y="351"/>
      <point x="513" y="387"/>
      <point x="513" y="426" type="curve"/>
      <point x="469" y="416"/>
      <point x="371" y="407"/>
      <point x="283" y="407" type="curve" smooth="yes"/>
      <point x="208" y="407"/>
      <point x="135" y="408"/>
      <point x="55" y="412" type="curve"/>
      <point x="36" y="374"/>
      <point x="27" y="339"/>
      <point x="27" y="299" type="curve"/>
      <point x="43" y="303"/>
      <point x="68" y="307"/>
      <point x="98" y="310" type="curve"/>
      <point x="100" y="287"/>
      <point x="100" y="261"/>
      <point x="100" y="231" type="curve" smooth="yes"/>
      <point x="100" y="151"/>
      <point x="94" y="51"/>
      <point x="89" y="-1" type="curve"/>
      <point x="113" y="-4"/>
      <point x="134" y="-6"/>
      <point x="152" y="-6" type="curve" smooth="yes"/>
    </contour>
  </outline>
</glyph>
<glyph name="endash" format="1">
  <advance width="539"/>
  <unicode hex="2013"/>
  <outline>
    <contour>
      <point x="111" y="145"/>
      <point x="197" y="154"/>
      <point x="277" y="154" type="curve" smooth="yes"/>
      <point x="344" y="154"/>
      <point x="413" y="153"/>
      <point x="488" y="149" type="curve"/>
      <point x="488" y="188"/>
      <point x="482" y="222"/>
      <point x="462" y="261" type="curve"/>
      <point x="427" y="251"/>
      <point x="341" y="242"/>
      <point x="262" y="242" type="curve" smooth="yes"/>
      <point x="194" y="242"/>
      <point x="127" y="243"/>
      <point x="52" y="247" type="curve"/>
      <point x="52" y="208"/>
      <point x="58" y="174"/>
      <point x="77" y="135" type="curve"/>
    </contour>
  </outline>
</glyph>
<glyph name="emdash" format="1">
  <advance width="757"/>
  <unicode hex="2014"/>
  <outline>
    <contour>
      <point x="133" y="145"/>
      <point x="265" y="154"/>
      <point x="390" y="154" type="curve" smooth="yes"/>
      <point x="491" y="154"/>
      <point x="593" y="153"/>
      <point x="706" y="149" type="curve"/>
      <point x="706" y="188"/>
      <point x="699" y="222"/>
      <point x="676" y="261" type="curve"/>
      <point x="622" y="251"/>
      <point x="490" y="242"/>
      <point x="366" y="242" type="curve" smooth="yes"/>
      <point x="265" y="242"/>
      <point x="164" y="243"/>
      <point x="52" y="247" type="curve"/>
      <point x="52" y="208"/>
      <point x="59" y="174"/>
      <point x="80" y="135" type="curve"/>
    </contour>
  </outline>
</glyph>
<glyph name="fraction" format="1">
  <advance width="61"/>
  <unicode hex="2044"/>
  <outline>
    <contour>
      <point x="-67" y="-75"/>
      <point x="-51" y="-71"/>
      <point x="-35" y="-66" type="curve"/>
      <point x="28" y="145"/>
      <point x="100" y="356"/>
      <point x="183" y="567" type="curve"/>
      <point x="168" y="572"/>
      <point x="155" y="576"/>
      <point x="143" y="576" type="curve" smooth="yes"/>
      <point x="128" y="576"/>
      <point x="112" y="572"/>
      <point x="96" y="567" type="curve"/>
      <point x="33" y="356"/>
      <point x="-39" y="145"/>
      <point x="-122" y="-66" type="curve"/>
      <point x="-107" y="-71"/>
      <point x="-95" y="-75"/>
      <point x="-82" y="-75" type="curve" smooth="yes"/>
    </contour>
  </outline>
</glyph>
<glyph name="Euro" format="1">
  <advance width="512"/>
  <unicode hex="20AC"/>
  <outline>
    <contour>
      <point x="344" y="-11"/>
      <point x="420" y="25"/>
      <point x="461" y="78" type="curve"/>
      <point x="452" y="115" type="line"/>
      <point x="414" y="91"/>
      <point x="359" y="77"/>
      <point x="303" y="77" type="curve" smooth="yes"/>
      <point x="217" y="77"/>
      <point x="161" y="135"/>
      <point x="161" y="269" type="curve" smooth="yes"/>
      <point x="161" y="364"/>
      <point x="209" y="457"/>
      <point x="267" y="474" type="curve"/>
      <point x="301" y="474"/>
      <point x="366" y="442"/>
      <point x="415" y="401" type="curve"/>
      <point x="432" y="424"/>
      <point x="448" y="475"/>
      <point x="448" y="509" type="curve"/>
      <point x="412" y="525"/>
      <point x="365" y="533"/>
      <point x="311" y="533" type="curve" smooth="yes"/>
      <point x="160" y="533"/>
      <point x="55" y="413"/>
      <point x="55" y="241" type="curve" smooth="yes"/>
      <point x="55" y="79"/>
      <point x="132" y="-11"/>
      <point x="272" y="-11" type="curve" smooth="yes"/>
    </contour>
    <component base="uni0335" xOffset="-42" yOffset="66" xScale="0.992" yScale="0.992"/>
    <component base="uni0335" xOffset="-46" yOffset="-64" xScale="0.992" yScale="0.992"/>
    <contour>
      <point x="270" y="527" type="move" name="top"/>
    </contour>
    <contour>
      <point x="252" y="0" type="move" name="bottom"/>
    </contour>
  </outline>
</glyph>
<glyph name="partialdiff" format="1">
  <advance width="545"/>
  <unicode hex="2202"/>
  <outline>
    <contour>
      <point x="381" y="-11"/>
      <point x="484" y="138"/>
      <point x="484" y="310" type="curve" smooth="yes"/>
      <point x="484" y="482"/>
      <point x="392" y="573"/>
      <point x="215" y="573" type="curve"/>
      <point x="200" y="556"/>
      <point x="192" y="540"/>
      <point x="195" y="516" type="curve"/>
      <point x="323" y="516"/>
      <point x="377" y="432"/>
      <point x="378" y="308" type="curve"/>
      <point x="340" y="338"/>
      <point x="295" y="354"/>
      <point x="245" y="354" type="curve" smooth="yes"/>
      <point x="129" y="354"/>
      <point x="42" y="258"/>
      <point x="42" y="141" type="curve" smooth="yes"/>
      <point x="42" y="50"/>
      <point x="109" y="-11"/>
      <point x="214" y="-11" type="curve" smooth="yes"/>
    </contour>
    <contour>
      <point x="178" y="60"/>
      <point x="149" y="92"/>
      <point x="149" y="143" type="curve" smooth="yes"/>
      <point x="149" y="220"/>
      <point x="201" y="294"/>
      <point x="284" y="294" type="curve"/>
      <point x="318" y="284"/>
      <point x="348" y="267"/>
      <point x="373" y="244" type="curve"/>
      <point x="356" y="156"/>
      <point x="306" y="60"/>
      <point x="226" y="60" type="curve" smooth="yes"/>
    </contour>
  </outline>
</glyph>
<glyph name="emptyset" format="1">
  <advance width="594"/>
  <unicode hex="2205"/>
  <outline>
    <contour>
      <point x="443" y="-11"/>
      <point x="561" y="109"/>
      <point x="561" y="279" type="curve" smooth="yes"/>
      <point x="561" y="432"/>
      <point x="466" y="534"/>
      <point x="325" y="534" type="curve" smooth="yes"/>
      <point x="153" y="534"/>
      <point x="33" y="417"/>
      <point x="33" y="251" type="curve" smooth="yes"/>
      <point x="33" y="94"/>
      <point x="131" y="-11"/>
      <point x="277" y="-11" type="curve" smooth="yes"/>
    </contour>
    <contour>
      <point x="181" y="81"/>
      <point x="112" y="150"/>
      <point x="112" y="253" type="curve" smooth="yes"/>
      <point x="112" y="364"/>
      <point x="196" y="441"/>
      <point x="317" y="441" type="curve" smooth="yes"/>
      <point x="416" y="441"/>
      <point x="481" y="374"/>
      <point x="481" y="273" type="curve" smooth="yes"/>
      <point x="481" y="159"/>
      <point x="399" y="81"/>
      <point x="282" y="81" type="curve" smooth="yes"/>
    </contour>
    <component base="fraction" xOffset="267" yOffset="11"/>
  </outline>
</glyph>
<glyph name="minus" format="1">
  <advance width="533"/>
  <unicode hex="2212"/>
  <outline>
    <contour>
      <point x="137" y="227"/>
      <point x="202" y="229"/>
      <point x="267" y="229" type="curve" smooth="yes"/>
      <point x="331" y="229"/>
      <point x="396" y="227"/>
      <point x="461" y="224" type="curve"/>
      <point x="463" y="238"/>
      <point x="465" y="254"/>
      <point x="465" y="266" type="curve" smooth="yes"/>
      <point x="465" y="280"/>
      <point x="463" y="294"/>
      <point x="461" y="307" type="curve"/>
      <point x="396" y="304"/>
      <point x="331" y="303"/>
      <point x="267" y="303" type="curve" smooth="yes"/>
      <point x="202" y="303"/>
      <point x="137" y="304"/>
      <point x="72" y="307" type="curve"/>
      <point x="69" y="293"/>
      <point x="67" y="278"/>
      <point x="67" y="265" type="curve" smooth="yes"/>
      <point x="67" y="252"/>
      <point x="69" y="237"/>
      <point x="72" y="224" type="curve"/>
    </contour>
  </outline>
</glyph>
<glyph name="uni2219" format="1">
  <advance width="346"/>
  <unicode hex="2219"/>
  <outline>
    <contour>
      <point x="223" y="171"/>
      <point x="266" y="214"/>
      <point x="308" y="265" type="curve"/>
      <point x="257" y="307"/>
      <point x="214" y="350"/>
      <point x="173" y="401" type="curve"/>
      <point x="122" y="359"/>
      <point x="79" y="316"/>
      <point x="37" y="265" type="curve"/>
      <point x="88" y="224"/>
      <point x="131" y="180"/>
      <point x="173" y="130" type="curve"/>
    </contour>
  </outline>
</glyph>
<glyph name="radical" format="1">
  <advance width="460"/>
  <unicode hex="221A"/>
  <outline>
    <contour>
      <point x="292" y="27" type="line"/>
      <point x="341" y="199"/>
      <point x="433" y="495"/>
      <point x="486" y="647" type="curve"/>
      <point x="448" y="647"/>
      <point x="420" y="644"/>
      <point x="389" y="636" type="curve"/>
      <point x="405" y="593"/>
      <point x="361" y="429"/>
      <point x="248" y="90" type="curve"/>
      <point x="228" y="136"/>
      <point x="211" y="210"/>
      <point x="186" y="333" type="curve"/>
      <point x="132" y="333"/>
      <point x="90" y="326"/>
      <point x="47" y="312" type="curve"/>
      <point x="131" y="163"/>
      <point x="124" y="-9"/>
      <point x="216" y="-9" type="curve"/>
    </contour>
  </outline>
</glyph>
<glyph name="integral" format="1">
  <advance width="348"/>
  <unicode hex="222B"/>
  <outline>
    <contour>
      <point x="195" y="-199"/>
      <point x="226" y="-61"/>
      <point x="226" y="34" type="curve" smooth="yes"/>
      <point x="226" y="143"/>
      <point x="222" y="219"/>
      <point x="222" y="278" type="curve" smooth="yes"/>
      <point x="222" y="460"/>
      <point x="228" y="508"/>
      <point x="257" y="529" type="curve"/>
      <point x="285" y="528"/>
      <point x="327" y="506"/>
      <point x="371" y="470" type="curve"/>
      <point x="386" y="497"/>
      <point x="400" y="547"/>
      <point x="400" y="571" type="curve"/>
      <point x="371" y="580"/>
      <point x="337" y="585"/>
      <point x="300" y="585" type="curve" smooth="yes"/>
      <point x="151" y="585"/>
      <point x="121" y="447"/>
      <point x="121" y="352" type="curve" smooth="yes"/>
      <point x="121" y="244"/>
      <point x="125" y="167"/>
      <point x="125" y="108" type="curve" smooth="yes"/>
      <point x="125" y="-73"/>
      <point x="118" y="-122"/>
      <point x="90" y="-143" type="curve"/>
      <point x="62" y="-142"/>
      <point x="20" y="-120"/>
      <point x="-24" y="-84" type="curve"/>
      <point x="-40" y="-111"/>
      <point x="-53" y="-161"/>
      <point x="-53" y="-185" type="curve"/>
      <point x="-24" y="-194"/>
      <point x="10" y="-199"/>
      <point x="46" y="-199" type="curve" smooth="yes"/>
    </contour>
  </outline>
</glyph>
<glyph name="fl" format="1">
  <advance width="526"/>
  <unicode hex="FB02"/>
  <outline>
    <contour>
      <point x="170" y="-79"/>
      <point x="197" y="-33"/>
      <point x="197" y="63" type="curve" smooth="yes"/>
      <point x="197" y="110"/>
      <point x="190" y="182"/>
      <point x="190" y="278" type="curve" smooth="yes"/>
      <point x="190" y="340" type="line"/>
      <point x="234" y="339"/>
      <point x="264" y="335"/>
      <point x="288" y="328" type="curve"/>
      <point x="300" y="354"/>
      <point x="305" y="375"/>
      <point x="305" y="404" type="curve"/>
      <point x="280" y="399"/>
      <point x="241" y="397"/>
      <point x="192" y="396" type="curve"/>
      <point x="196" y="483"/>
      <point x="205" y="514"/>
      <point x="225" y="529" type="curve"/>
      <point x="263" y="529"/>
      <point x="301" y="514"/>
      <point x="346" y="490" type="curve"/>
      <point x="354" y="444"/>
      <point x="357" y="381"/>
      <point x="357" y="297" type="curve" smooth="yes"/>
      <point x="357" y="208"/>
      <point x="353" y="144"/>
      <point x="353" y="73" type="curve" smooth="yes"/>
      <point x="353" y="10"/>
      <point x="370" y="-9"/>
      <point x="414" y="-9" type="curve" smooth="yes"/>
      <point x="433" y="-9"/>
      <point x="464" y="0"/>
      <point x="489" y="27" type="curve"/>
      <point x="458" y="61"/>
      <point x="450" y="84"/>
      <point x="450" y="192" type="curve" smooth="yes"/>
      <point x="450" y="356"/>
      <point x="455" y="485"/>
      <point x="462" y="547" type="curve"/>
      <point x="404" y="571"/>
      <point x="347" y="585"/>
      <point x="278" y="585" type="curve" smooth="yes"/>
      <point x="163" y="585"/>
      <point x="106" y="514"/>
      <point x="90" y="404" type="curve"/>
      <point x="71" y="391"/>
      <point x="52" y="379"/>
      <point x="29" y="368" type="curve"/>
      <point x="29" y="344"/>
      <point x="39" y="338"/>
      <point x="90" y="337" type="curve"/>
      <point x="106" y="-28"/>
      <point x="100" y="-72"/>
      <point x="47" y="-143" type="curve"/>
      <point x="64" y="-159" type="line"/>
    </contour>
  </outline>
</glyph>
<glyph name="eight.dnom" format="1">
  <advance width="351"/>
  <outline>
    <contour>
      <point x="246" y="-6"/>
      <point x="305" y="27"/>
      <point x="305" y="80" type="curve" smooth="yes"/>
      <point x="305" y="114"/>
      <point x="281" y="132"/>
      <point x="251" y="144" type="curve"/>
      <point x="280" y="161"/>
      <point x="296" y="183"/>
      <point x="296" y="208" type="curve" smooth="yes"/>
      <point x="296" y="250"/>
      <point x="252" y="277"/>
      <point x="188" y="277" type="curve" smooth="yes"/>
      <point x="111" y="277"/>
      <point x="56" y="244"/>
      <point x="56" y="196" type="curve" smooth="yes"/>
      <point x="56" y="165"/>
      <point x="74" y="147"/>
      <point x="98" y="134" type="curve"/>
      <point x="66" y="117"/>
      <point x="47" y="94"/>
      <point x="47" y="67" type="curve" smooth="yes"/>
      <point x="47" y="24"/>
      <point x="96" y="-6"/>
      <point x="167" y="-6" type="curve" smooth="yes"/>
    </contour>
    <contour>
      <point x="142" y="36"/>
      <point x="121" y="52"/>
      <point x="121" y="74" type="curve" smooth="yes"/>
      <point x="121" y="90"/>
      <point x="130" y="104"/>
      <point x="145" y="115" type="curve"/>
      <point x="188" y="101"/>
      <point x="230" y="92"/>
      <point x="230" y="66" type="curve" smooth="yes"/>
      <point x="230" y="48"/>
      <point x="210" y="36"/>
      <point x="174" y="36" type="curve" smooth="yes"/>
    </contour>
    <contour>
      <point x="162" y="170"/>
      <point x="126" y="179"/>
      <point x="126" y="206" type="curve" smooth="yes"/>
      <point x="126" y="226"/>
      <point x="150" y="238"/>
      <point x="181" y="238" type="curve"/>
      <point x="210" y="233"/>
      <point x="226" y="221"/>
      <point x="226" y="202" type="curve" smooth="yes"/>
      <point x="226" y="184"/>
      <point x="217" y="169"/>
      <point x="202" y="160" type="curve"/>
    </contour>
  </outline>
</glyph>
<glyph name="f_f" format="1">
  <advance width="553"/>
  <outline>
    <contour>
      <point x="170" y="-79"/>
      <point x="197" y="-33"/>
      <point x="197" y="63" type="curve" smooth="yes"/>
      <point x="197" y="110"/>
      <point x="190" y="182"/>
      <point x="190" y="278" type="curve" smooth="yes"/>
      <point x="190" y="340" type="line"/>
      <point x="351" y="340" type="line"/>
      <point x="367" y="-28"/>
      <point x="361" y="-72"/>
      <point x="308" y="-143" type="curve"/>
      <point x="325" y="-159" type="line"/>
      <point x="431" y="-79"/>
      <point x="458" y="-33"/>
      <point x="458" y="63" type="curve" smooth="yes"/>
      <point x="458" y="110"/>
      <point x="451" y="182"/>
      <point x="451" y="278" type="curve" smooth="yes"/>
      <point x="451" y="340" type="line"/>
      <point x="491" y="339"/>
      <point x="518" y="335"/>
      <point x="540" y="328" type="curve"/>
      <point x="552" y="354"/>
      <point x="557" y="375"/>
      <point x="557" y="404" type="curve"/>
      <point x="534" y="400"/>
      <point x="498" y="397"/>
      <point x="453" y="396" type="curve"/>
      <point x="457" y="483"/>
      <point x="466" y="514"/>
      <point x="486" y="529" type="curve"/>
      <point x="515" y="528"/>
      <point x="557" y="506"/>
      <point x="600" y="468" type="curve"/>
      <point x="616" y="495"/>
      <point x="629" y="545"/>
      <point x="629" y="569" type="curve"/>
      <point x="601" y="580"/>
      <point x="567" y="585"/>
      <point x="530" y="585" type="curve" smooth="yes"/>
      <point x="490" y="585"/>
      <point x="455" y="572"/>
      <point x="426" y="549" type="curve"/>
      <point x="379" y="572"/>
      <point x="326" y="585"/>
      <point x="269" y="585" type="curve" smooth="yes"/>
      <point x="176" y="585"/>
      <point x="106" y="514"/>
      <point x="90" y="404" type="curve"/>
      <point x="71" y="391"/>
      <point x="52" y="379"/>
      <point x="29" y="368" type="curve"/>
      <point x="29" y="344"/>
      <point x="39" y="338"/>
      <point x="90" y="337" type="curve"/>
      <point x="106" y="-28"/>
      <point x="100" y="-72"/>
      <point x="47" y="-143" type="curve"/>
      <point x="64" y="-159" type="line"/>
    </contour>
    <contour>
      <point x="199" y="471"/>
      <point x="213" y="497"/>
      <point x="242" y="511" type="curve"/>
      <point x="391" y="511" type="line"/>
      <point x="369" y="481"/>
      <point x="355" y="442"/>
      <point x="349" y="397" type="curve"/>
      <point x="193" y="397" type="line"/>
    </contour>
  </outline>
</glyph>
<glyph name="f_f_i" format="1">
  <advance width="795"/>
  <outline>
    <contour>
      <point x="170" y="-79"/>
      <point x="197" y="-33"/>
      <point x="197" y="63" type="curve" smooth="yes"/>
      <point x="197" y="110"/>
      <point x="190" y="182"/>
      <point x="190" y="278" type="curve" smooth="yes"/>
      <point x="190" y="340" type="line"/>
      <point x="359" y="340" type="line"/>
      <point x="375" y="-28"/>
      <point x="370" y="-72"/>
      <point x="316" y="-143" type="curve"/>
      <point x="334" y="-159" type="line"/>
      <point x="439" y="-79"/>
      <point x="467" y="-33"/>
      <point x="467" y="63" type="curve" smooth="yes"/>
      <point x="467" y="110"/>
      <point x="460" y="182"/>
      <point x="460" y="278" type="curve" smooth="yes"/>
      <point x="460" y="340" type="line"/>
      <point x="625" y="340" type="line"/>
      <point x="626" y="319"/>
      <point x="627" y="295"/>
      <point x="627" y="272" type="curve" smooth="yes"/>
      <point x="627" y="208"/>
      <point x="623" y="144"/>
      <point x="623" y="73" type="curve" smooth="yes"/>
      <point x="623" y="10"/>
      <point x="640" y="-9"/>
      <point x="683" y="-9" type="curve" smooth="yes"/>
      <point x="702" y="-9"/>
      <point x="733" y="0"/>
      <point x="758" y="27" type="curve"/>
      <point x="727" y="61"/>
      <point x="719" y="84"/>
      <point x="719" y="192" type="curve" smooth="yes"/>
      <point x="719" y="294"/>
      <point x="724" y="379"/>
      <point x="731" y="417" type="curve"/>
      <point x="692" y="417"/>
      <point x="657" y="413"/>
      <point x="618" y="397" type="curve"/>
      <point x="462" y="397" type="line"/>
      <point x="465" y="483"/>
      <point x="475" y="514"/>
      <point x="495" y="529" type="curve"/>
      <point x="533" y="528"/>
      <point x="588" y="502"/>
      <point x="647" y="460" type="curve"/>
      <point x="663" y="487"/>
      <point x="678" y="537"/>
      <point x="678" y="561" type="curve"/>
      <point x="637" y="576"/>
      <point x="590" y="585"/>
      <point x="538" y="585" type="curve" smooth="yes"/>
      <point x="497" y="585"/>
      <point x="461" y="571"/>
      <point x="431" y="547" type="curve"/>
      <point x="383" y="571"/>
      <point x="328" y="585"/>
      <point x="269" y="585" type="curve" smooth="yes"/>
      <point x="176" y="585"/>
      <point x="106" y="514"/>
      <point x="90" y="404" type="curve"/>
      <point x="71" y="391"/>
      <point x="52" y="379"/>
      <point x="29" y="368" type="curve"/>
      <point x="29" y="344"/>
      <point x="39" y="338"/>
      <point x="90" y="337" type="curve"/>
      <point x="106" y="-28"/>
      <point x="100" y="-72"/>
      <point x="47" y="-143" type="curve"/>
      <point x="64" y="-159" type="line"/>
    </contour>
    <contour>
      <point x="199" y="471"/>
      <point x="213" y="497"/>
      <point x="242" y="511" type="curve"/>
      <point x="399" y="511" type="line"/>
      <point x="378" y="481"/>
      <point x="363" y="442"/>
      <point x="358" y="397" type="curve"/>
      <point x="193" y="397" type="line"/>
    </contour>
  </outline>
</glyph>
<glyph name="f_j" format="1">
  <advance width="526"/>
  <outline>
    <contour>
      <point x="406" y="-111"/>
      <point x="468" y="-63"/>
      <point x="468" y="63" type="curve" smooth="yes"/>
      <point x="468" y="110"/>
      <point x="465" y="129"/>
      <point x="465" y="172" type="curve" smooth="yes"/>
      <point x="465" y="257"/>
      <point x="467" y="374"/>
      <point x="472" y="417" type="curve"/>
      <point x="429" y="417"/>
      <point x="392" y="413"/>
      <point x="348" y="397" type="curve"/>
      <point x="192" y="397" type="line"/>
      <point x="196" y="483"/>
      <point x="205" y="514"/>
      <point x="225" y="529" type="curve"/>
      <point x="263" y="528"/>
      <point x="319" y="502"/>
      <point x="378" y="460" type="curve"/>
      <point x="394" y="487"/>
      <point x="408" y="537"/>
      <point x="408" y="561" type="curve"/>
      <point x="368" y="576"/>
      <point x="321" y="585"/>
      <point x="269" y="585" type="curve" smooth="yes"/>
      <point x="176" y="585"/>
      <point x="106" y="514"/>
      <point x="90" y="404" type="curve"/>
      <point x="71" y="391"/>
      <point x="52" y="379"/>
      <point x="29" y="368" type="curve"/>
      <point x="29" y="344"/>
      <point x="39" y="338"/>
      <point x="90" y="337" type="curve"/>
      <point x="106" y="-28"/>
      <point x="100" y="-72"/>
      <point x="47" y="-143" type="curve"/>
      <point x="64" y="-159" type="line"/>
      <point x="170" y="-79"/>
      <point x="197" y="-33"/>
      <point x="197" y="63" type="curve" smooth="yes"/>
      <point x="197" y="110"/>
      <point x="190" y="182"/>
      <point x="190" y="278" type="curve" smooth="yes"/>
      <point x="190" y="340" type="line"/>
      <point x="365" y="340" type="line"/>
      <point x="368" y="299"/>
      <point x="369" y="231"/>
      <point x="369" y="106" type="curve" smooth="yes"/>
      <point x="369" y="-52"/>
      <point x="336" y="-106"/>
      <point x="270" y="-168" type="curve"/>
      <point x="283" y="-189" type="line"/>
    </contour>
  </outline>
</glyph>
<glyph name="f_t" format="1">
  <advance width="584"/>
  <outline>
    <contour>
      <point x="170" y="-79"/>
      <point x="197" y="-33"/>
      <point x="197" y="63" type="curve" smooth="yes"/>
      <point x="197" y="129"/>
      <point x="190" y="156"/>
      <point x="191" y="340" type="curve"/>
      <point x="368" y="340" type="line"/>
      <point x="369" y="322"/>
      <point x="370" y="303"/>
      <point x="370" y="292" type="curve" smooth="yes"/>
      <point x="370" y="206"/>
      <point x="366" y="145"/>
      <point x="366" y="76" type="curve" smooth="yes"/>
      <point x="366" y="14"/>
      <point x="385" y="-9"/>
      <point x="436" y="-9" type="curve" smooth="yes"/>
      <point x="483" y="-9"/>
      <point x="532" y="16"/>
      <point x="558" y="53" type="curve"/>
      <point x="552" y="82" type="line"/>
      <point x="529" y="77"/>
      <point x="503" y="74"/>
      <point x="476" y="73" type="curve"/>
      <point x="467" y="113"/>
      <point x="463" y="175"/>
      <point x="463" y="252" type="curve" smooth="yes"/>
      <point x="463" y="283"/>
      <point x="464" y="312"/>
      <point x="466" y="340" type="curve"/>
      <point x="503" y="339"/>
      <point x="530" y="335"/>
      <point x="549" y="328" type="curve"/>
      <point x="561" y="354"/>
      <point x="566" y="375"/>
      <point x="566" y="404" type="curve"/>
      <point x="544" y="400"/>
      <point x="509" y="397"/>
      <point x="468" y="396" type="curve"/>
      <point x="467" y="416"/>
      <point x="465" y="442"/>
      <point x="463" y="466" type="curve"/>
      <point x="429" y="469" type="line"/>
      <point x="396" y="415"/>
      <point x="345" y="397"/>
      <point x="300" y="397" type="curve" smooth="yes"/>
      <point x="192" y="397" type="line"/>
      <point x="196" y="481"/>
      <point x="204" y="513"/>
      <point x="226" y="529" type="curve"/>
      <point x="254" y="528"/>
      <point x="296" y="506"/>
      <point x="340" y="470" type="curve"/>
      <point x="354" y="497"/>
      <point x="368" y="547"/>
      <point x="368" y="571" type="curve"/>
      <point x="337" y="580"/>
      <point x="303" y="585"/>
      <point x="269" y="585" type="curve" smooth="yes"/>
      <point x="176" y="585"/>
      <point x="106" y="515"/>
      <point x="90" y="404" type="curve"/>
      <point x="71" y="392"/>
      <point x="53" y="380"/>
      <point x="29" y="368" type="curve"/>
      <point x="29" y="343"/>
      <point x="40" y="338"/>
      <point x="90" y="337" type="curve"/>
      <point x="105" y="-23"/>
      <point x="100" y="-71"/>
      <point x="47" y="-143" type="curve"/>
      <point x="65" y="-159" type="line"/>
    </contour>
  </outline>
</glyph>
<glyph name="four.dnom" format="1">
  <advance width="352"/>
  <outline>
    <contour>
      <point x="250" y="-3"/>
      <point x="262" y="-2"/>
      <point x="274" y="0" type="curve"/>
      <point x="272" y="17"/>
      <point x="270" y="37"/>
      <point x="270" y="55" type="curve"/>
      <point x="290" y="55" type="line"/>
      <point x="299" y="74"/>
      <point x="305" y="100"/>
      <point x="305" y="122" type="curve"/>
      <point x="297" y="119"/>
      <point x="282" y="117"/>
      <point x="268" y="115" type="curve"/>
      <point x="268" y="178" type="line"/>
      <point x="254" y="180"/>
      <point x="241" y="181"/>
      <point x="229" y="181" type="curve"/>
      <point x="194" y="113" type="line"/>
      <point x="109" y="113" type="line"/>
      <point x="168" y="195"/>
      <point x="218" y="245"/>
      <point x="245" y="268" type="curve"/>
      <point x="218" y="280"/>
      <point x="192" y="284"/>
      <point x="157" y="284" type="curve"/>
      <point x="97" y="201"/>
      <point x="44" y="115"/>
      <point x="44" y="81" type="curve" smooth="yes"/>
      <point x="44" y="65"/>
      <point x="51" y="53"/>
      <point x="61" y="44" type="curve"/>
      <point x="84" y="52"/>
      <point x="112" y="55"/>
      <point x="194" y="55" type="curve"/>
      <point x="194" y="37"/>
      <point x="193" y="18"/>
      <point x="192" y="0" type="curve"/>
      <point x="208" y="-2"/>
      <point x="224" y="-3"/>
      <point x="238" y="-3" type="curve" smooth="yes"/>
    </contour>
  </outline>
</glyph>
<glyph name="one.dnom" format="1">
  <advance width="352"/>
  <outline>
    <contour>
      <point x="215" y="-3"/>
      <point x="229" y="-2"/>
      <point x="242" y="0" type="curve"/>
      <point x="237" y="52"/>
      <point x="235" y="104"/>
      <point x="235" y="157" type="curve" smooth="yes"/>
      <point x="235" y="196"/>
      <point x="236" y="235"/>
      <point x="239" y="274" type="curve"/>
      <point x="223" y="276"/>
      <point x="210" y="277"/>
      <point x="197" y="277" type="curve"/>
      <point x="180" y="259"/>
      <point x="114" y="221"/>
      <point x="77" y="203" type="curve"/>
      <point x="84" y="187"/>
      <point x="91" y="172"/>
      <point x="104" y="156" type="curve"/>
      <point x="165" y="193" type="line"/>
      <point x="165" y="150" type="line" smooth="yes"/>
      <point x="165" y="102"/>
      <point x="163" y="39"/>
      <point x="159" y="0" type="curve"/>
      <point x="175" y="-2"/>
      <point x="189" y="-3"/>
      <point x="202" y="-3" type="curve" smooth="yes"/>
    </contour>
  </outline>
</glyph>
<glyph name="seven.dnom" format="1">
  <advance width="351"/>
  <outline>
    <contour>
      <point x="279" y="192" type="line" smooth="yes"/>
      <point x="291" y="213"/>
      <point x="296" y="230"/>
      <point x="296" y="248" type="curve" smooth="yes"/>
      <point x="296" y="257"/>
      <point x="290" y="273"/>
      <point x="278" y="284" type="curve"/>
      <point x="259" y="273"/>
      <point x="229" y="268"/>
      <point x="174" y="268" type="curve" smooth="yes"/>
      <point x="123" y="268"/>
      <point x="78" y="270"/>
      <point x="57" y="274" type="curve"/>
      <point x="57" y="249"/>
      <point x="63" y="217"/>
      <point x="74" y="197" type="curve"/>
      <point x="86" y="204"/>
      <point x="104" y="206"/>
      <point x="131" y="206" type="curve" smooth="yes"/>
      <point x="229" y="206" type="line"/>
      <point x="164" y="104"/>
      <point x="107" y="41"/>
      <point x="79" y="13" type="curve"/>
      <point x="106" y="1"/>
      <point x="133" y="-3"/>
      <point x="167" y="-3" type="curve"/>
    </contour>
  </outline>
</glyph>
<glyph name="six.dnom" format="1">
  <advance width="352"/>
  <outline>
    <contour>
      <point x="247" y="-5"/>
      <point x="300" y="33"/>
      <point x="300" y="87" type="curve" smooth="yes"/>
      <point x="300" y="140"/>
      <point x="258" y="176"/>
      <point x="197" y="176" type="curve" smooth="yes"/>
      <point x="171" y="176"/>
      <point x="146" y="168"/>
      <point x="123" y="153" type="curve"/>
      <point x="131" y="192"/>
      <point x="151" y="217"/>
      <point x="182" y="227" type="curve"/>
      <point x="199" y="227"/>
      <point x="232" y="211"/>
      <point x="259" y="190" type="curve"/>
      <point x="273" y="205"/>
      <point x="285" y="241"/>
      <point x="285" y="265" type="curve"/>
      <point x="266" y="273"/>
      <point x="239" y="277"/>
      <point x="208" y="277" type="curve" smooth="yes"/>
      <point x="111" y="277"/>
      <point x="46" y="224"/>
      <point x="46" y="126" type="curve" smooth="yes"/>
      <point x="46" y="48"/>
      <point x="97" y="-5"/>
      <point x="173" y="-5" type="curve" smooth="yes"/>
    </contour>
    <contour>
      <point x="141" y="36"/>
      <point x="120" y="67"/>
      <point x="120" y="115" type="curve"/>
      <point x="134" y="126"/>
      <point x="150" y="134"/>
      <point x="168" y="139" type="curve"/>
      <point x="203" y="139"/>
      <point x="226" y="120"/>
      <point x="226" y="90" type="curve" smooth="yes"/>
      <point x="226" y="57"/>
      <point x="207" y="36"/>
      <point x="178" y="36" type="curve" smooth="yes"/>
    </contour>
  </outline>
</glyph>
<glyph name="three.dnom" format="1">
  <advance width="352"/>
  <outline>
    <contour>
      <point x="246" y="-6"/>
      <point x="292" y="26"/>
      <point x="292" y="84" type="curve" smooth="yes"/>
      <point x="292" y="121"/>
      <point x="259" y="154"/>
      <point x="209" y="162" type="curve"/>
      <point x="261" y="195"/>
      <point x="284" y="212"/>
      <point x="284" y="244" type="curve" smooth="yes"/>
      <point x="284" y="259"/>
      <point x="276" y="275"/>
      <point x="264" y="284" type="curve"/>
      <point x="243" y="273"/>
      <point x="211" y="268"/>
      <point x="156" y="268" type="curve" smooth="yes"/>
      <point x="114" y="268"/>
      <point x="80" y="270"/>
      <point x="64" y="274" type="curve"/>
      <point x="64" y="248"/>
      <point x="71" y="216"/>
      <point x="80" y="197" type="curve"/>
      <point x="93" y="203"/>
      <point x="111" y="206"/>
      <point x="142" y="206" type="curve" smooth="yes"/>
      <point x="222" y="206" type="line"/>
      <point x="139" y="150" type="line" smooth="yes"/>
      <point x="122" y="139"/>
      <point x="115" y="129"/>
      <point x="112" y="121" type="curve" smooth="yes"/>
      <point x="112" y="114"/>
      <point x="131" y="105"/>
      <point x="143" y="105" type="curve"/>
      <point x="152" y="119"/>
      <point x="169" y="128"/>
      <point x="180" y="128" type="curve"/>
      <point x="205" y="120"/>
      <point x="219" y="103"/>
      <point x="219" y="83" type="curve" smooth="yes"/>
      <point x="219" y="53"/>
      <point x="194" y="37"/>
      <point x="151" y="37" type="curve" smooth="yes"/>
      <point x="115" y="37"/>
      <point x="83" y="49"/>
      <point x="65" y="69" type="curve"/>
      <point x="58" y="51"/>
      <point x="55" y="36"/>
      <point x="55" y="18" type="curve"/>
      <point x="85" y="3"/>
      <point x="121" y="-6"/>
      <point x="160" y="-6" type="curve" smooth="yes"/>
    </contour>
  </outline>
</glyph>
<glyph name="two.dnom" format="1">
  <advance width="352"/>
  <outline>
    <contour>
      <point x="294" y="10"/>
      <point x="299" y="44"/>
      <point x="299" y="70" type="curve"/>
      <point x="274" y="62"/>
      <point x="233" y="57"/>
      <point x="195" y="57" type="curve" smooth="yes"/>
      <point x="183" y="57"/>
      <point x="167" y="58"/>
      <point x="155" y="60" type="curve"/>
      <point x="239" y="107"/>
      <point x="285" y="158"/>
      <point x="285" y="206" type="curve" smooth="yes"/>
      <point x="285" y="249"/>
      <point x="241" y="277"/>
      <point x="172" y="277" type="curve" smooth="yes"/>
      <point x="135" y="277"/>
      <point x="91" y="270"/>
      <point x="56" y="258" type="curve"/>
      <point x="56" y="235"/>
      <point x="67" y="201"/>
      <point x="81" y="184" type="curve"/>
      <point x="117" y="209"/>
      <point x="154" y="227"/>
      <point x="178" y="231" type="curve"/>
      <point x="200" y="229"/>
      <point x="212" y="218"/>
      <point x="212" y="201" type="curve" smooth="yes"/>
      <point x="212" y="157"/>
      <point x="160" y="100"/>
      <point x="52" y="26" type="curve"/>
      <point x="52" y="0" type="line"/>
      <point x="121" y="3"/>
      <point x="262" y="2"/>
      <point x="288" y="-3" type="curve"/>
    </contour>
  </outline>
</glyph>
<glyph name="zero.dnom" format="1">
  <advance width="352"/>
  <outline>
    <contour>
      <point x="257" y="-6"/>
      <point x="322" y="56"/>
      <point x="322" y="145" type="curve" smooth="yes"/>
      <point x="322" y="224"/>
      <point x="268" y="277"/>
      <point x="191" y="277" type="curve" smooth="yes"/>
      <point x="96" y="277"/>
      <point x="29" y="216"/>
      <point x="29" y="130" type="curve" smooth="yes"/>
      <point x="29" y="49"/>
      <point x="84" y="-6"/>
      <point x="164" y="-6" type="curve" smooth="yes"/>
    </contour>
    <contour>
      <point x="133" y="54"/>
      <point x="105" y="90"/>
      <point x="105" y="146" type="curve" smooth="yes"/>
      <point x="105" y="197"/>
      <point x="137" y="236"/>
      <point x="182" y="236" type="curve"/>
      <point x="222" y="228"/>
      <point x="246" y="193"/>
      <point x="246" y="143" type="curve" smooth="yes"/>
      <point x="246" y="88"/>
      <point x="218" y="54"/>
      <point x="174" y="54" type="curve" smooth="yes"/>
    </contour>
  </outline>
</glyph>
